<?xml version="1.0" encoding="utf-8"?>
<!-- Generator: Adobe Illustrator 27.0.0, SVG Export Plug-In . SVG Version: 6.00 Build 0)  -->
<svg version="1.1" id="Слой_1" xmlns="http://www.w3.org/2000/svg" xmlns:xlink="http://www.w3.org/1999/xlink" x="0px" y="0px"
	 viewBox="0 0 512 512" style="enable-background:new 0 0 512 512;" xml:space="preserve">
<style type="text/css">
	.st0{fill:#FFFFFF;}
	.st1{fill:#FFCC00;stroke:#000000;stroke-miterlimit:10;}
</style>
<g>
	<path class="st0" d="M377.3,492.6c-15.3,0-28.4-0.8-39-2.4c-8.1-1.2-19.8-4-27.4-14c-5.1-6.7-7.6-15.3-8-27.8
		c-26.9,10.4-48.6,14.2-78.6,14.3l-2.2,0c-22.1,0-34.5-1.6-55.6-6.9c-41-10.3-77.8-32.5-106.2-64.2C31.9,360,13.1,320.3,5.8,276.9
		c-3.7-21.9-3.2-52.6,1.2-74.6c10.6-52.5,41.5-101.2,84.7-133.6c17.8-13.3,29.5-19.9,52.2-29.6c26.3-11,50-16.9,77-19.2
		c4.8-0.4,9.9-0.6,15.1-0.6c22.4,0,46.6,3.9,68.2,11c80.8,26.4,135.2,98.9,142.2,189.3c2.1,28.6-1.8,59.9-10.7,86.6h1.4
		c12.1,0,24.1,0.4,34,1.1c15.8,1,19.4,2.3,21.6,3.4c7,3.6,13.6,12,15.1,19.1c1.9,9,0.7,80.3-0.8,101.2c-0.5,6.8-1.9,23.1-3.2,26.7
		c-1.2,3.2-4.8,8-7.6,11.5c-11.5,13.9-23.7,16.2-58.4,19.8C416.5,491.4,395.6,492.6,377.3,492.6
		C377.3,492.6,377.3,492.6,377.3,492.6z"/>
	<path class="st0" d="M497.9,332c-0.9-4.3-5.6-10.1-9.9-12.3c-3.4-1.8-26.7-3.3-51-3.4h-15.6l3.5-9.8c9.4-26.3,13.5-57.6,11.4-86
		C429.7,134.2,377.8,65,301,39.9c-25.6-8.4-54.6-12-79.3-9.9c-26.2,2.2-48.8,7.9-73.9,18.4c-21.8,9.3-32.7,15.4-50.1,28.4
		c-41.1,30.8-70.8,77.6-80.9,127.5c-4.1,20.6-4.6,50.3-1.1,71c14.1,84.6,73.4,150.8,153.2,170.8c20.8,5.3,32.5,6.7,55.3,6.6
		c32.1-0.1,54.4-4.7,85-17.7l3.5-1.5l0.1,11.1c0.1,23.5,7.1,32.7,27,35.7c22.5,3.4,58.3,3,96.9-1.1c35.6-3.7,43.3-6.1,51.7-16.2
		c2.7-3.3,5.4-7.1,5.9-8.5c0.5-1.4,1.7-12.2,2.6-24.1C498.6,407.3,499.3,338.8,497.9,332z"/>
	<path class="st0" d="M387.8,86.5C381,86.5,375,82.2,373,76c-0.4-1.4-1.7-5.3,0.8-21.7c2.4-16.4,4.7-19.9,5.6-21.2
		c2.7-4.2,7.7-6.8,13.1-6.8c4.6,0,8.7,1.9,11.4,5.1c4.2,5.2,3.7,9,1.2,27.2c-1.2,9.3-1.8,13.5-2.6,16.5c-1.3,4.8-3.6,7.7-7.7,9.7
		C392.6,85.9,390.2,86.5,387.8,86.5z"/>
	<path class="st0" d="M390.3,75.9c2.5-1.2,2.6-1.5,4.9-18.6c2.2-16.2,2.3-17.9,1-19.5c-1.9-2.3-6.7-1.9-8.4,0.7
		c-2.6,4-6.5,30.4-5.2,34.5C383.5,75.9,387.4,77.4,390.3,75.9z"/>
	<path class="st0" d="M406.1,102.3c-8.3,0-15.9-7.5-15.9-15.7c0-3.6,0-4.7,14.4-22.2c12-14.3,15.2-18.1,23.2-18.1
		c2.5,0,9.9,0,13.7,8.4l0,0.1c1.9,4.3,1.9,8.8,0.1,12.7c-1.4,3-9.2,12.4-13.8,17.8C417.8,97.3,413.6,102.3,406.1,102.3z"/>
	<path class="st0" d="M406.1,92.3c2.4,0,4.6-2.1,14.2-13.5c6.3-7.4,11.8-14.4,12.3-15.5c0.6-1.3,0.5-2.9-0.2-4.5
		c-0.9-2-1.9-2.5-4.6-2.5c-3.1,0-4.2,1-15.5,14.5c-6.6,8-12.1,15.1-12.1,15.8C400.2,89.3,403.3,92.3,406.1,92.3z"/>
	<path class="st0" d="M419.3,127.8c-3.4,0-9.5-1.1-12.9-8.7c-1.8-3.9-2-7.7-0.7-11.3c2.4-6.5,9-9.9,17.4-13.7
		c7.9-3.6,13.1-5.6,17.8-5.6c5.1,0,9.5,2.4,12.3,6.8c2.7,4.1,3.5,8.1,2.3,12.1c-2,6.9-8.7,10.4-18.7,14.9
		C428.6,125.9,423.7,127.8,419.3,127.8C419.3,127.8,419.3,127.8,419.3,127.8z"/>
	<path class="st0" d="M415.5,115c1.8,4.1,4.6,3.8,17.1-1.8c13-5.9,15.1-8,12.1-12.5c-2.2-3.5-5.5-3-17.5,2.5
		C415.8,108.4,413.5,110.7,415.5,115z"/>
</g>
<g transform="translate(0.000000,512.000000) scale(0.100000,-0.100000)">
	<path class="st1" d="M240,2890c104.3,1151.7,1089.2,1620,1089.2,1620s782.6,286.2,1230.7,250.1c448.1-36.1,797.1-214.7,1335-752.7
		c208.7-208.7,433-814.7,433-1233.3c0-343.6-181.4-867.6-181.4-867.6l662.1-18.4c0,0,105.5,4.4,111.4-228.1
		c6.2-245.5,0.5-905.2,0.5-905.2S4920,470,4680,470s-1240-60-1240-60s-235.1,41.2-235.1,267c0,253.4-14.9,253-14.9,253
		S2185.4,470,1577.7,800S135.7,1738.3,240,2890z"/>
	<path d="M2215,4823c-262-22-488-79-739-184c-218-93-327-154-501-284c-411-308-708-776-809-1275c-41-206-46-503-11-710
		C296,1524,889,862,1687,662c208-53,325-67,553-66c321,1,544,47,850,177l35,15l1-111c1-235,71-327,270-357c225-34,583-30,969,11
		c356,37,433,61,517,162c27,33,54,71,59,85s17,122,26,241c17,231,24,916,10,984c-9,43-56,101-99,123c-34,18-267,33-510,34h-156
		l35,98c94,263,135,576,114,860c-66,863-585,1555-1353,1806C2752,4808,2462,4844,2215,4823z M2750,4675c177-37,314-85,475-165
		c188-94,304-178,460-335c184-184,295-348,397-583c111-259,158-473,165-763c9-312-26-523-128-790l-29-76l-223-7
		c-477-15-530-25-583-106c-24-36-28-54-35-168c-4-70-8-235-9-368v-241l-87-41c-177-82-398-145-603-172c-121-17-386-14-510,5
		c-422,63-818,270-1132,593c-596,614-729,1432-353,2179c193,382,479,658,890,858c163,80,279,122,443,161c183,45,278,54,517,49
		C2595,4702,2642,4698,2750,4675z M4590,1840c231-10,235-11,260-36l25-24l-1-348c0-221-7-432-18-582c-21-292-8-272-191-294
		c-218-26-452-36-858-36h-388l-23,23c-23,23-24,32-32,233c-10,255-9,845,1,938s20,102,136,111C3793,1848,4250,1855,4590,1840z"/>
	<path d="M3087,4182c-30-33-21-68,26-101c246-171,477-489,582-803c55-166,76-284,82-458c6-169,13-190,63-190c48,0,55,21,53,157
		c-5,384-145,765-393,1078c-61,76-227,238-301,293C3138,4204,3112,4209,3087,4182z"/>
	<path d="M881,3541c-42-42-110-262-132-426c-14-110-7-319,16-434c37-188,127-394,236-541c63-86,87-100,124-76c38,25,31,58-28,137
		c-190,248-279,602-233,918c16,108,47,218,95,339l21,53l-24,24C926,3565,906,3566,881,3541z"/>
	<path d="M2135,3461c-266-72-468-270-531-521c-53-208,10-454,159-616c292-318,747-320,1040-3c126,135,183,297,174,489
		c-14,296-201,549-470,636C2395,3482,2237,3489,2135,3461z M2405,3355c268-56,464-301,465-581c0-76-31-200-67-267
		c-40-74-146-182-222-227c-148-86-322-105-477-52c-408,143-537,630-248,940c113,122,276,197,439,201C2317,3369,2367,3363,2405,3355z
		"/>
	<path d="M2174,3032c-60-21-98-49-134-100c-37-51-50-94-50-167c0-157,133-276,294-263c75,6,130,33,180,88c67,75,89,162,62,253
		C2481,2998,2320,3084,2174,3032z"/>
	<path d="M1342,1798c-25-25-13-65,33-110c60-60,136-95,170-80c29,14,43,56,24,78c-7,8-29,24-48,34c-20,10-53,34-74,54
		C1407,1811,1365,1821,1342,1798z"/>
	<path d="M3878,1583c-12-14-17-56-22-178c-3-88-11-218-17-288c-11-111-14-127-28-121c-44,18-100,16-134-5c-41-25-57-58-57-116
		c0-142,197-165,274-32c36,63,54,177,72,468l7,106l56-23c95-40,207-30,344,30c16,8,17-4,17-173c0-177-1-181-19-171
		c-37,19-72,11-107-24c-28-28-34-42-34-76s6-48,34-76s41-34,79-34c53,0,102,30,131,80c19,32,22,61,30,308c6,194,5,280-2,297
		c-19,41-54,41-124,2c-95-53-184-80-240-74c-57,7-93,25-153,77C3935,1603,3902,1610,3878,1583z"/>
	<path d="M3876,4738c-26-40-65-304-52-345c9-29,48-44,77-29c25,12,26,15,49,186c22,162,23,179,10,195C3941,4768,3893,4764,3876,4738
		z"/>
	<path d="M4121,4415c-66-80-121-151-121-158c0-27,31-57,59-57c24,0,46,21,142,135c63,74,118,144,123,155c6,13,5,29-2,45
		c-9,20-19,25-46,25C4245,4560,4234,4550,4121,4415z"/>
	<path d="M4270,4091c-114-52-137-75-117-118c18-41,46-38,171,18c130,59,151,80,121,125C4423,4151,4390,4146,4270,4091z"/>
</g>
</svg>
