<?xml version="1.0" encoding="utf-8"?>
<!-- Generator: Adobe Illustrator 27.0.0, SVG Export Plug-In . SVG Version: 6.00 Build 0)  -->
<svg version="1.1" id="Слой_1" xmlns="http://www.w3.org/2000/svg" xmlns:xlink="http://www.w3.org/1999/xlink" x="0px" y="0px"
	 viewBox="0 0 527.1 470" style="enable-background:new 0 0 527.1 470;" xml:space="preserve">
<style type="text/css">
	.st0{fill:#FFFFFF;}
	.st1{fill:#FFCC00;stroke:#000000;stroke-miterlimit:10;}
</style>
<g>
	<path class="st0" d="M143.8,87c-10.2,0-18.3-5.4-22.8-15.3c-2.1-4.6-3.6-10.4-6.2-20.9c-5.3-21.5-8.3-33.4,2-43.7
		c4.5-4.5,10.8-7,17.7-7c7.7,0,14.7,3.1,19.5,8.5c3.2,3.6,5,7.1,10.2,27.7c4.8,19.2,5.1,23.8,4.9,26.7C168.5,76.1,157.1,87,143.8,87
		z"/>
	<path class="st0" d="M143.8,77c-6.2,0-10.8-3.2-13.7-9.4c-1.7-3.8-3.2-9.4-5.6-19.1c-5-20.4-6.9-28-0.6-34.3
		c2.7-2.7,6.4-4.1,10.6-4.1c4.8,0,9.1,1.9,12,5.1c1.5,1.7,2.9,3.5,8,23.5c4.8,19.1,4.7,22.5,4.6,23.8C158.7,70.3,151.7,77,143.8,77z
		"/>
	<path class="st0" d="M143.8,67c2.6,0,5.2-2.4,5.3-5.1c0.2-4-8.4-38.3-10.1-40.2c-1.7-2-6.2-2.3-8-0.5c-1.9,1.9-1.5,5.5,3.3,24.9
		C138.7,64.4,139.9,67,143.8,67z"/>
	<path class="st0" d="M119.1,105c-6.8,0-13.2-2.7-17.9-7.5c-2.9-3-6-7.8-6.5-8.7l-0.1-0.2c-2.4-4-12.1-16.3-15.6-19.8
		c-8.3-8-10.1-16-10.2-21.3c-0.1-6.8,2.6-13.2,7.5-18.1c4.9-4.9,10.9-7.5,17.3-7.5c11.7,0,19.6,8.4,25.3,14.5
		c4.9,5.2,10.6,12.5,15.4,19.4c8.8,12.6,10.5,18.3,10.5,23.8c0,7.2-3.1,14.1-8.6,18.9C131.4,102.7,125.4,105,119.1,105z"/>
	<path class="st0" d="M119.1,95c-4.1,0-7.9-1.6-10.8-4.5c-1.8-1.9-4.1-5.2-5.2-6.9l-0.1-0.1c-2.8-4.8-13.1-17.7-17.2-21.7
		c-4.7-4.5-7.1-9.3-7.1-14.3c0-4.1,1.6-7.9,4.5-10.9c3-3,6.4-4.5,10.2-4.5c6.8,0,12,4.9,18,11.3c4.5,4.9,9.9,11.7,14.5,18.3
		c8,11.6,8.7,15.3,8.7,18.1c0,4.3-1.9,8.5-5.2,11.4C126.7,93.6,123,95,119.1,95C119.1,95,119.1,95,119.1,95z"/>
	<path class="st0" d="M92.9,54.5c4.6,4.5,15.4,18.1,18.8,23.8c1.3,2.1,3,4.4,3.8,5.2c3.2,3.3,9.3,0.8,9.3-3.8
		c0-3.2-11.6-19.9-20.5-29.5c-8-8.5-10.7-9.8-13.9-6.6C87.6,46.4,88.5,50.3,92.9,54.5z"/>
	<path class="st0" d="M174.7,470c-5.1,0-10.3-1.2-14.9-3.6c-5.6-2.9-11.6-8.9-15.3-13.5c-1.3-0.4-3-0.9-5.5-1.5
		c-19.9-5.1-56.7-17.5-70.1-28.8c-11.1-9.6-14.4-18.1-22.9-43.5C35.1,347.3,14.7,292.4,7.5,276c-4.3-9.8-6-16.4-7.2-26.9l0-0.2
		C-1.4,231,5,205.6,15.9,186.3c-1.6-4.4-2.1-8.4-2.3-10.8c-0.6-8.7,1.9-16.5,7-22.1c4.9-5.4,11.6-8.4,18.8-8.4
		c2.9,0,5.7,0.5,8.5,1.4c20.9-19.9,44.7-36.1,77.1-52.3c1.9-0.9,4-2,6.1-3c0.6-4.9,2.2-9.5,4.8-13.2c5.4-7.9,15.2-12.7,25.4-12.7
		c1.8,0,3.5,0.1,5.3,0.4l0.5,0.1c4.1,0.8,8.3,2.7,12,5.4c28.4-9.6,69.3-18.5,100.4-21.9c1.1-1.9,2.6-3.8,4.3-5.5
		c5-5,11.7-7.7,18.9-7.7c10.2,0,20.1,5.3,26.1,13.6c5,0.5,10.9,1.3,14.8,2l1.2,0.2l15.5-10.1c24.9-16.1,29-17.3,31.3-17.9
		c3.2-0.9,6.5-1.3,9.9-1.3c16.4,0,31.6,10.2,37.1,24.7c3.5,9.1,3,21.2-1.3,30.6c-1.2,2.7-2.7,5.3-4.5,7.8c4.5,5.5,7.1,12.4,7.2,19.7
		c4-0.2,8.3-0.5,13-0.8c17.2-1.2,26.5-1.8,32.4-1.8c5.5,0,9.3,0.5,13.2,1.7c13.2,3.9,22.7,13.3,26.6,26.5c1,2.7,1.6,5.5,1.7,8.4
		c1.6,13.5-1.9,24.3-10.7,33c-11.3,11.4-24.9,12.4-49.5,14.2c-0.9,0.1-1.8,0.1-2.6,0.2c2.3,6.8,5.3,15.4,8.4,23.9
		c12.8,34.7,16.1,44.7,17.1,55.8c1.2,14.4-2.7,32.4-10.5,48c-7.7,15.5-29.9,43.2-49.6,61.7c-23.2,21.9-53.7,42.8-79.6,54.5
		c-0.7,0.3-1.2,0.6-1.7,0.8c-5.5,8-14.2,12.4-24.6,12.4c-1.6,0-3.2-0.1-5-0.3c-0.2,0-0.4,0-0.5,0l0,0c-9,3.2-32.4,9-42.6,10.6
		c-17.9,3-51.2,5.6-71.3,5.6c-2.2,0-4.3,0-6.1-0.1l-0.3,0c-1.1,1.2-2.1,2.2-3,2.9C189.2,467.4,182.1,470,174.7,470z"/>
	<path class="st0" d="M174.7,460c-3.6,0-7.1-0.9-10.3-2.5c-4.3-2.2-10.5-8.5-13.8-13.2c-1.3-0.5-4-1.3-9-2.6
		c-23.8-6.1-55.9-18.1-66.2-26.7c-8.7-7.5-11.3-13.6-19.9-39c-10.9-32-31.5-87.3-38.8-103.9c-3.9-8.9-5.4-14.5-6.4-24l0-0.1
		c-1.6-17.2,5.7-43.4,16.9-61c-2.3-4-3.4-8.5-3.6-12.1c-0.4-5.9,1.1-11.1,4.4-14.6c3-3.3,7.1-5.1,11.4-5.1c3.5,0,7,1.1,10.5,3.4
		l3.6-3.6c20.4-19.8,43.8-35.7,75.9-51.8c3.7-1.8,8.2-4.1,11.5-5.8c-0.5-4.9,0.6-10,3.1-13.7c3.5-5.1,10.3-8.4,17.2-8.4
		c1.2,0,2.4,0.1,3.6,0.3l0.2,0c4,0.8,8.4,3.4,11.7,7c29-10.5,76.4-20.9,109.5-23.9c0.6-2.5,1.8-5.2,4.4-7.7
		c3.1-3.1,7.3-4.8,11.9-4.8c8.5,0,16.6,5.5,20.1,13.2c0.4,0,0.9,0.1,1.3,0.1c4.9,0.3,12.9,1.4,17.9,2.2l5,0.8l18.8-12.3
		c23.2-15,27.2-16.3,28.5-16.7c2.3-0.6,4.7-1,7.2-1c12.1,0,23.8,7.7,27.7,18.2c2.5,6.7,2.1,15.9-1.1,23c-2.2,4.7-5.2,8.9-9.5,12.9
		c6.6,3.7,11.3,10.9,11.3,19c0,3.3-1.3,7.4-2.5,10.3c6-0.3,15.2-0.8,26.1-1.5c17-1.2,26.1-1.8,31.7-1.8c4.5,0,7.4,0.4,10.3,1.3
		c10.2,3,17.1,9.9,20,20.1c0.7,1.9,1.2,3.9,1.2,6c1.4,10.7-1.1,18.4-7.8,25.1c-8.2,8.4-17.6,9.4-43.1,11.3
		c-6.6,0.5-11.6,0.9-15.2,1.2c1.6,5.7,6.8,21.3,12.4,36.4c12.4,33.6,15.6,43.3,16.5,53.2c1.1,12.5-2.6,28.8-9.5,42.7
		c-7.1,14.4-28.9,41.4-47.5,58.9c-22.5,21.2-51.9,41.4-76.8,52.6c-3,1.4-4.3,2.2-4.7,2.6c-2.6,4.7-7.7,9.8-17.4,9.8c0,0,0,0,0,0
		c-1.2,0-2.5-0.1-3.8-0.2c-0.6-0.1-1.1-0.1-1.6-0.1c-1.2,0-2.2,0.2-3.2,0.5c-8.3,3-31.2,8.7-40.9,10.2c-17.5,2.9-50.1,5.5-69.7,5.5
		c-2.1,0-4.1,0-5.8-0.1l-5.7-0.2c-1,2.2-2.7,4-4.6,5.6C184.5,458.3,179.7,460,174.7,460z"/>
	<path class="st0" d="M465.1,166.5c26-1.9,31.6-3.1,36.8-8.4c4.7-4.6,6-9.3,4.9-17.2c0-1.3-0.3-2.5-0.7-3.6
		c-1.9-7.1-6.4-11.7-13.5-13.7c-4.1-1.3-8.7-1.2-38.5,0.9c-18.6,1.2-34.1,2-34.4,1.6c-0.3-0.3-1.3-2.5-2.2-4.8
		c-1.6-4-1.5-4.4,0.3-8.5c1.1-2.4,2-5.6,2-7.1c0-8.7-9.9-14.7-16.1-9.8c-2.5,1.9-2.5,1.9-5.9-0.9c-1.9-1.6-3.3-3-3-3.3
		c0.3-0.2,3.9-2.7,8.1-5.5c8.5-5.6,13.3-10.7,16-16.6c2.1-4.6,2.4-11.1,0.8-15.3c-3.1-8.3-14.2-13.6-22.9-11.1
		c-1.9,0.5-13.5,7.5-25.7,15.4L349,73l-8.8-1.5c-4.8-0.8-12.5-1.8-17-2.1c-8-0.7-8.2-0.8-8.8-3.5c-1.5-7.7-11.9-12.6-16.6-7.9
		c-1.7,1.7-2.1,3.1-1.8,6l0.3,3.9l-7.5,0.6c-34.9,2.9-88,14.9-115.2,26c-1.3,0.5-1.8,0.2-1.8-0.8c0-2.8-5-7.6-8.6-8.3
		c-4.1-0.7-8.9,1-10.9,4c-1.9,2.6-1.9,8.6-0.1,11.1c1.2,1.7,0,2.5-18.3,11.6c-31.2,15.6-53.7,30.9-73.4,50L50.4,172l-2.6-2.4
		c-5.3-5-9.6-5.8-12.5-2.6c-3.4,3.7-1.7,14.1,2.9,17.9c1.4,1.2,1.2,1.8-1.3,5.5c-10.8,15.7-18.2,40.9-16.7,56.6
		c0.9,8.4,2.1,13,5.6,21c7.2,16.4,27.8,71.4,39.1,104.7c8.4,24.9,10.4,29,16.9,34.6c7.8,6.6,36.9,18.2,62.3,24.7
		c9.4,2.5,13.1,3.8,13.8,5.3c1.8,3.3,8.1,9.8,11,11.3c4.3,2.2,9.4,1.8,12.6-1c2.5-2.2,2.7-2.7,1.7-5.4l-1.2-3l16.7,0.5
		c17.4,0.6,54.5-2.1,73.6-5.3c9.4-1.5,31.9-7.2,39.2-9.8c2.9-1,6-1.3,9.3-0.9c6,0.7,9.5-0.8,11.6-5c1.1-2,3.7-3.8,9.1-6.3
		c23.9-10.8,52.7-30.6,74.1-50.8c17.6-16.6,38.8-42.8,45.4-56.1c6.1-12.2,9.4-26.8,8.5-37.4c-0.7-8.3-3.4-16.7-15.9-50.6
		c-5.5-14.9-11.2-31.8-12.8-37.8l-2.7-10.7l2.1-0.4C441.3,168.3,452.6,167.4,465.1,166.5z M406.2,55.3c-1.2-0.5-2.6-0.9-4-1
		C403.9,54,405,54.4,406.2,55.3z"/>
	<path class="st0" d="M95.1,126.6c-4.1,0-8.2-1-11.9-3c-3.5-1.9-10.7-7.2-21.3-15.8C44.9,94,42,91,40.2,84.4l-0.1-0.2
		C37.4,74,42.1,62.2,51.1,56.2c4-2.6,9-4.2,13.8-4.2c7.2,0,10.5,1.8,29.8,16.4c18.9,14.3,21,17,22.9,20.5c4.3,7.7,4.2,17-0.3,24.7
		C112.6,121.6,104.1,126.6,95.1,126.6z"/>
	<path class="st0" d="M95.1,116.6c-2.5,0-4.9-0.6-7.1-1.8c-4.1-2.2-15.2-11.1-19.8-14.8C51.1,86.2,50.7,84.8,49.8,81.8l0-0.1
		c-1.6-6,1.4-13.6,6.8-17.2c2.3-1.5,5.5-2.5,8.2-2.5c3.4,0,4.7,0,23.8,14.4c18,13.6,19.2,15.6,20.1,17.4c2.6,4.6,2.5,10.2-0.2,14.9
		C105.8,113.5,100.6,116.6,95.1,116.6C95.1,116.6,95.1,116.6,95.1,116.6z"/>
	<path class="st0" d="M92.8,106c4.4,2.4,9.8-3,7.3-7.4C98.8,96.2,66.7,72,64.9,72c-0.9,0-2.1,0.4-2.7,0.8c-1.8,1.2-3.2,4.4-2.7,6.3
		C60,80.9,87.8,103.3,92.8,106z"/>
</g>
<g transform="translate(0.000000,512.000000) scale(0.100000,-0.100000)">
	<path class="st1" d="M782.8,1160.1c0,0,847.2-768.2,2545-93.8c1520,603.8,1190,1703.8,1190,1703.8l-290,730c0,0,840-48,840,211
		s-971.7,47.3-971.7,47.3c175-145.9-51.5,372.5-268.3,468.7c-89.8,39.8,410.1,263.5,234,340c-176.1,76.4-556.4-243.5-556.4-243.5
		c80.7,73.1-1121.8,206.3-1887.6-269.5c-344.4-213.9-1040.9-224.1-1374.9-1284.1L782.8,1160.1z"/>
	<path d="M1309.8,4908.1c-19-19-15-55,33-249c44-183,56-209,95-209c26,0,52,24,53,51c2,40-84,383-101,402
		C1372.8,4923.1,1327.8,4926.1,1309.8,4908.1z"/>
	<path d="M903.8,4684.1c-28-28-19-67,25-109c46-45,154-181,188-238c13-21,30-44,38-52c32-33,93-8,93,38c0,32-116,199-205,295
		C962.8,4703.1,935.8,4716.1,903.8,4684.1z"/>
	<path d="M3967.8,4688.1c-19-5-135-75-257-154l-221-144l-88,15c-48,8-125,18-170,21c-80,7-82,8-88,35c-15,77-119,126-166,79
		c-17-17-21-31-18-60l3-39l-75-6c-349-29-880-149-1152-260c-13-5-18-2-18,8c0,28-50,76-86,83c-41,7-89-10-109-40c-19-26-19-86-1-111
		c12-17,0-25-183-116c-312-156-537-309-734-500l-101-99l-26,24c-53,50-96,58-125,26c-34-37-17-141,29-179c14-12,12-18-13-55
		c-108-157-182-409-167-566c9-84,21-130,56-210c72-164,278-714,391-1047c84-249,104-290,169-346c78-66,369-182,623-247
		c94-25,131-38,138-53c18-33,81-98,110-113c43-22,94-18,126,10c25,22,27,27,17,54l-12,30l167-5c174-6,545,21,736,53
		c94,15,319,72,392,98c29,10,60,13,93,9c60-7,95,8,116,50c11,20,37,38,91,63c239,108,527,306,741,508c176,166,388,428,454,561
		c61,122,94,268,85,374c-7,83-34,167-159,506c-55,149-112,318-128,378l-27,107l21,4c11,3,124,12,249,21c260,19,316,31,368,84
		c47,46,60,93,49,172c-13,92-60,149-142,173c-41,13-87,12-385-9c-186-12-341-20-344-16c-3,3-13,25-22,48c-16,40-15,44,3,85
		c11,24,20,56,20,71c0,87-99,147-161,98c-25-19-25-19-59,9c-19,16-33,30-30,33c3,2,39,27,81,55c85,56,133,107,160,166
		c21,46,24,111,8,153C4165.8,4660.1,4054.8,4713.1,3967.8,4688.1z M4061.8,4567.1c19-14,25-63,10-76c-5-5-259-173-564-374l-555-365
		l-85-7c-47-3-98-9-115-12l-30-5l25,19c48,38,688,469,965,650C3994.8,4582.1,4022.8,4595.1,4061.8,4567.1z M3252.8,4309.1
		c49-5,91-12,93-13c2-2-131-95-295-206c-164-110-356-241-428-291l-130-89l-215-25c-455-53-701-90-858-131l-94-24l-38,34
		c-80,72-179,53-247-50c-49-74-52-132-11-186c34-44,101-78,154-78c43,0,117,30,149,60c19,17,24,18,80,5c85-19,340-37,421-29
		c44,4,65,3,59-3c-5-5-77-61-159-123c-81-63-182-146-224-184l-75-71h-63c-104,0-154-56-154-172c0-51,4-67,25-91c34-41,75-55,140-50
		c48,4,61,10,95,43c22,22,42,46,45,56c3,9,24,23,46,32c96,38,565,303,891,504l146,90l148,7c247,11,651,36,979,60
		c171,13,311,22,313,21c2-2-6-21-17-43c-17-34-25-40-61-45c-77-10-114-73-69-116l22-20l-124-124c-213-213-531-430-883-603
		c-77-38-100-46-104-35c-12,34-50,59-102,66c-48,7-56,5-72-15c-23-28-24-102-3-124c14-14,12-17-22-32c-90-38-397-134-503-158
		c-233-52-319-61-585-61c-272,0-359,8-330,29c23,17,22,66-1,83c-31,23-88,16-118-13c-14-15-26-35-26-46c0-14-5-17-22-13
		c-13,3-63,14-113,25c-181,41-327,97-412,159l-41,30l19,38c42,82-8,157-111,165c-30,3-36,7-41,33c-14,65-9,201,11,283
		c152,632,1173,1258,2330,1427C2892.8,4328.1,3044.8,4332.1,3252.8,4309.1z M3914.8,4075.1c60-54,143-166,157-212c6-20,4-23-17-23
		c-23,0-609-44-732-55l-60-5l65,34c36,19,164,98,285,175s225,141,230,141C3848.8,4130.1,3880.8,4105.1,3914.8,4075.1z
		 M4931.8,3754.1c31-32,34-76,7-103c-24-24-29-24-516-56c-214-15-583-39-820-55c-485-33-1016-65-1335-80c-263-12-814-12-783,0
		c30,12,390,65,648,94c587,68,1583,155,2295,201c129,8,255,16,280,18s79,4,121,5C4898.8,3780.1,4906.8,3778.1,4931.8,3754.1z
		 M4210.8,3345.1l17-59l-50-75c-41-63-50-72-56-56c-4,11-13,34-20,51c-11,30-9,38,33,124c25,50,49,88,53,83
		C4191.8,3409.1,4201.8,3378.1,4210.8,3345.1z M2257.8,3305.1c0-6-76-54-281-177c-223-134-338-197-320-174c30,37,443,339,474,346
		C2166.8,3309.1,2257.8,3313.1,2257.8,3305.1z M4304.8,3002.1c114-405,173-635,173-677c0-29-9-66-22-93l-21-45l-39,114
		c-55,163-218,685-218,698c0,16,82,132,89,125C4269.8,3121.1,4286.8,3066.1,4304.8,3002.1z M4004.8,2975.1c-129-159-385-381-597-517
		c-156-99-474-272-492-266c-5,2-19,27-33,56l-24,52l117,59c377,189,733,437,938,655l99,104l16-46l16-47L4004.8,2975.1z
		 M4166.8,2642.1c40-128,87-275,105-326c19-51,44-132,56-180l22-88l-45-67c-145-217-380-449-632-620c-109-75-323-201-340-201
		c-6,0-35,64-64,143c-126,332-207,540-256,654l-53,122l144,76c364,189,620,370,839,591c77,78,143,139,146,135
		C4092.8,2878.1,4127.8,2770.1,4166.8,2642.1z M2784.8,2194.1c14-30,23-56,22-58c-2-1-42-19-89-38c-261-109-470-166-750-204
		c-139-19-490-25-651-11l-97,9l-17,44c-9,25-15,47-12,50s63,0,133-7c376-34,838,42,1268,210c83,33,155,60,159,60
		C2754.8,2250.1,2770.8,2225.1,2784.8,2194.1z M687.8,2106.1c58-19,161-47,230-62s129-30,134-35c9-8,36-76,36-90
		c0-17-456,97-534,132c-17,8-33,32-50,75c-15,36-26,66-26,68s24-9,53-24C559.8,2154.1,630.8,2125.1,687.8,2106.1z M2933.8,1854.1
		c39-93,101-250,138-349s85-226,106-282c22-56,40-106,40-111c0-24-329-147-526-197c-333-86-709-103-1023-48c-31,5-37,13-82,107
		c-44,92-212,504-279,686c-16,41-31,82-34,90c-5,13,32,15,301,15c329,0,411,8,668,61c128,27,389,111,520,168c44,19,85,33,90,32
		C2858.8,2025.1,2894.8,1947.1,2933.8,1854.1z M638.8,1904.1c62-22,307-81,408-99c46-8,88-18,92-22c3-5,27-64,52-133
		c43-115,242-614,281-704l17-38l-38,6c-133,24-516,178-571,229c-35,32-47,59-117,265c-35,103-90,260-123,350c-33,89-56,162-52,162
		S614.8,1913.1,638.8,1904.1z"/>
	<path d="M2420.8,1135.1c-51-13-132-28-180-34c-111-14-349-14-431-1c-73,12-97,7-113-22c-17-32-3-65,33-77c53-17,276-33,373-26
		c190,13,395,50,458,82c48,24,28,105-26,102C2522.8,1158.1,2470.8,1147.1,2420.8,1135.1z"/>
	<path d="M621.8,4392.1c-18-12-32-44-27-63c5-18,283-242,333-269c44-24,98,30,73,74c-13,24-334,266-352,266
		C639.8,4400.1,627.8,4396.1,621.8,4392.1z"/>
</g>
</svg>
