<?xml version="1.0" encoding="utf-8"?>
<!-- Generator: Adobe Illustrator 27.0.0, SVG Export Plug-In . SVG Version: 6.00 Build 0)  -->
<svg version="1.1" id="Слой_1" xmlns="http://www.w3.org/2000/svg" xmlns:xlink="http://www.w3.org/1999/xlink" x="0px" y="0px"
	 viewBox="0 0 477.8 525" style="enable-background:new 0 0 477.8 525;" xml:space="preserve">
<style type="text/css">
	.st0{fill:#FFFFFF;}
	.st1{fill:#FFCC00;}
</style>
<path class="st0" d="M175.1,525c-14.1,0-27.5-4-49.4-14.7c-28.5-14-56.1-34.1-82-59.8c-18.1-18-27.5-30.1-34.9-44.9
	c-7-14.4-9.5-26-8.6-41.5c1-19,8-35.7,21-49.6c11.4-12.4,21.6-17.5,50.7-28.9c0.6-0.2,1.3-0.5,2-0.8c-13.1-36.3-21.4-72.6-24-105.2
	c-1.3-17.1-0.6-59.7,1.2-72.3c6.5-43.4,28.2-74.3,61.2-87c9.5-3.7,19.1-5.6,28.6-5.6c3.7,0,7.1,0.3,10.2,0.8
	c17,2.5,28,8.2,51.2,26.8c19.9,16,25.9,18.6,32.4,18.6c3.4,0,7.5-0.7,13.4-2.3c11.6-3.1,19.2-4.4,26.2-4.4
	c12.5,0,22.2,4.3,33.3,11.8c-0.4-1.6-0.6-3.3-0.6-5c0-2.9,0.7-7.7,6.3-15.8c3.7-5.3,7.1-8.7,10.7-10.5c3.3-1.9,6.7-2.9,10.1-2.9
	c1.6,0,3.2,0.2,4.7,0.6c1.9-2.8,4.3-4.8,6-6.4c0,0,0.2-0.2,0.2-0.2c3.1-5.1,7.4-11.5,17.7-11.5c5.8,0,10.6,1.6,14.2,4.8
	c2-3.5,5.2-6.9,10.4-9.9c2.7-4.3,6.9-7.1,12.8-8.4l3.2-0.6l3,0.6c8.8,1.8,14.9,7.7,17,16.2c0.8,0.8,2,2,3.8,3.6l4.6,3.9l5.9,0.6
	c9.5,1.1,15.1,2.2,21.1,5.8c11.6,6.5,18.7,18.2,19,31.2c0.1,14.4-7.9,27.7-21.6,35.7c-4,2.4-12.8,5.7-17.3,7.2
	c-5.7,2-10.3,3.8-11.8,4.5c-0.6,0.4-1.8,1.4-2.8,2.4c-0.2,1.3-0.5,2.8-0.9,4.7l-0.6,3.3c-2,11.2-6.7,37.2-35.2,37.2
	c-0.5,0-1,0-1.6,0l-66.1,80.4c-36.6,44.5-55.7,67.9-62.8,77.3c0.8,0.3,1.8,0.5,2.9,0.5c0.6,0,1.3,0,1.5,0c0.2-0.1,0.9-0.6,3-3
	c6.7-7.8,13.7-13,26.1-13c18.4,0,31.2,14.6,31.2,35.6c0,8.2-1.1,12.7-4.7,20c-5.4,10.8-14.1,20-32.2,33.7
	c-12.4,9.5-17.4,14.3-20.6,19.8c-1.6,2.8-5.8,13.3-9.7,32.5c-4.7,22.7-7.1,31.7-12.8,43.6c-11,23.1-29.6,36.4-55.4,39.8
	C182.6,524.7,178.9,525,175.1,525z M140.6,55.5c-1.8,0-3.9,0.3-7,1c-17.4,3.9-30.7,17.4-37.4,38.1c-4.5,13.8-5.9,23.1-5.8,54.2
	c0.1,36.4,2.9,57.3,11.9,89.5c1.7,6.2,4.3,14.3,6.7,21.7c3.9-6.3,7.7-15.1,12.1-27.6c9.8-28.4,20.1-48.1,40.7-58.1
	c8.5-4.3,12.4-5.3,23.1-5.7c2-0.1,3.7-0.1,5.2-0.1c8.5,0,17.6,1,26.5,8.5c8.3,6.8,13.1,16.7,13.1,27c0,13.7-5.5,20-19,34
	c-0.2,0.6-0.4,1.7-0.4,2.8c9.1-10.3,26.8-31.6,50.9-60.7c16.3-19.7,29.9-36.1,40-48.3c4.8-5.8,8.8-10.6,11.9-14.4
	c-6.9-2.7-14.1-6.9-22.9-13.5c-10-7.4-13.2-8.6-16.8-8.6c-3,0-7,0.7-13.1,2.3c-10.5,2.7-18,4.3-25.3,4.3c-3.9,0-7.8-0.5-12.2-1.4
	c-11.9-2.4-24-8.8-39-20.8c-26.4-20.9-30.1-22.4-37-23.6C144.1,55.7,142.3,55.5,140.6,55.5z"/>
<path class="st0" d="M175.1,520c-13.4,0-26.2-3.9-47.2-14.2c-28.1-13.8-55.2-33.6-80.7-58.9c-17.6-17.5-26.8-29.3-33.9-43.6
	c-6.6-13.5-8.9-24.4-8.1-39c0.9-17.8,7.5-33.4,19.7-46.5c10.9-11.8,20.8-16.7,48.9-27.7c2.4-0.9,4.6-1.8,6.5-2.6
	c-0.1-0.2-0.1-0.3-0.2-0.5c-13.8-37.3-22.5-74.6-25.2-107.9c-1.3-16.8-0.6-58.8,1.2-71.2c6.2-41.5,26.8-71,58.1-83.1
	c8.9-3.5,18-5.3,26.8-5.3c3.2,0,6.4,0.2,9.4,0.7c15.9,2.3,26.4,7.8,48.8,25.8c19.3,15.5,26.9,19.7,35.5,19.7c3.7,0,8.1-0.7,14.7-2.5
	c11.2-3,18.4-4.2,24.9-4.2c13.5,0,23.3,5.4,36.6,15.3c10.2,7.6,13.1,9.1,17.2,10c1.1-2.8,2.7-6.1,4.2-8.7c-0.1-0.1-0.2-0.2-0.3-0.3
	c-1.5,0.5-3.1,0.7-4.7,0.7c-8.6,0-15.3-6.7-15.3-15.2c0-1.4,0-5.2,5.4-13c3.9-5.6,6.8-7.9,9-9c2.5-1.5,5.1-2.3,7.7-2.3
	c2.4,0,4.9,0.7,7,2.1c1.4-4.2,4.8-7.1,7.2-9.2c0.2-0.2,0.4-0.3,0.6-0.5c3.3-5.5,6.3-9.8,13.9-9.8c1.9,0,7.5,0,11.6,4.2
	c2.4,2.4,3.3,5.2,3.7,7.5c0.4,0.3,0.8,0.6,1.2,0.9c-0.6-5.4,0.8-13.3,11.8-19c1.5-3,4.4-5.9,10.2-7.2l2.1-0.4l2.1,0.4
	c4.3,0.9,11.5,3.9,13.3,13.7c0.9,1,2.5,2.6,5.1,4.9l5.8,5l7.5,0.8c8.7,1,13.8,2,19.1,5.1c10.2,5.7,16.3,15.8,16.5,27
	c0.1,12.5-7,24.2-19.1,31.3c-3.5,2.1-11.7,5.2-16.4,6.8c-5.7,2-11.1,4.1-12.7,4.9c-1.1,0.7-3.6,2.9-5,4.4c-0.2,1.3-0.5,3.2-1.1,6.2
	l-0.6,3.4c-3.1,17.2-8.9,33.1-30.3,33.1l0,0c-0.9,0-1.9,0-2.9-0.1h-1L316,234.3c-44.3,53.9-61.6,75.1-65.6,81.2
	c1.2,2.7,5.1,4.7,9.5,4.8c3.2,0,4.1,0,8.3-4.7c6.2-7.2,11.9-11.3,22.4-11.3c15.7,0,26.2,12.3,26.2,30.6c0,7.5-0.9,11.2-4.2,17.8
	c-5,10.1-13.4,18.8-30.8,32c-13.2,10.1-18.3,15.1-21.9,21.2c-2.3,4-6.5,15.4-10.3,34c-4.6,22.3-6.9,31-12.4,42.4
	c-10.2,21.4-27.6,33.9-51.5,37C182,519.8,178.5,520,175.1,520z M140.6,50.5c-2.2,0-4.5,0.3-8.1,1.1c-19.2,4.3-33.8,19-41.1,41.4
	c-4.7,14.5-6.1,24.1-6,55.8c0.1,36.7,2.9,58,12.1,90.8c2.5,9,6.7,21.8,9.8,31c1.1-1.1,2.1-2.3,2.9-3.5c5.2-6.9,10-17.1,15.6-33.1
	c9.4-27.2,19.1-46,38.2-55.3c7.9-4,11.1-4.8,21.1-5.2c1.9-0.1,3.5-0.1,5-0.1c8.7,0,16,1.2,23.3,7.3c7.2,5.9,11.3,14.3,11.3,23.2
	c0,11.7-4.3,16.8-18,31c-1.8,2.2-2,11-0.3,13.4l0,0c0.5,0.6,1.4,1.1,2.4,1.5c5.8-5.9,23.5-27.1,56.2-66.5c29-35,49.5-59.7,56.7-68.4
	c-8.7-2-17.2-6.5-28.5-14.9c-10-7.4-14.4-9.6-19.8-9.6c-3.3,0-7.6,0.7-14.4,2.5c-10.1,2.6-17.2,4.1-24,4.1c-3.5,0-7-0.4-11.1-1.3
	c-11.2-2.3-22.7-8.5-37-19.8c-25.9-20.5-30.8-23.1-39.2-24.6C144.6,50.7,142.5,50.5,140.6,50.5z"/>
<path class="st0" d="M451.1,43.9c-3.6-2.1-7.1-2.9-15.2-3.8L425.3,39l-8.2-7.1c-4.8-4.2-8.2-7.9-8.2-9.1c-0.2-2.6-0.7-6.3-5.7-7.3
	c-6,1.3-1.4,3.6-5.7,5.3c-2.4,1.1-9.8,3.8-8.2,10.9c1.7,1.6,7.1,3.8,9.9,2.8c3-1.1,3.4-1,6.5,2.1l3.4,3.4l-7.9,1.3
	c-4.3,0.7-10.5,2-13.7,3.1c-6.6,2-6.3,2.1-12.7-3.3c-2.6-2.1-5.1-3.8-5.7-3.8c-0.5,0-0.9-1.2-0.9-2.7c0-2.8,0.2-5.3-5.5-5.3
	c-2.3,0-2.6,0.3-6,6.1c-2.7,2.7-8.5,6.3-5.4,9.4c1.7,2.6,8.2,3.4,10.2,1.6c0.5-0.6,2.2,0.2,4.3,2.1l3.5,3.1l-2.4,1.6
	c-1.3,0.9-4.6,3.4-7.3,5.6s-5.5,4.4-6.2,4.9c-1.4,1.1-15.5-9.9-15.5-12.1c0-1.9-1.8-7.2-6.9-3.8c-2.5,0.8-9.1,10.4-9.1,13.2
	c0,4.7,5.6,6.9,9.1,3.7c1.7-1.5,2.2-1.3,7.9,3.6c3.3,2.8,6,5.4,6,5.6s-1.3,2.4-2.9,5c-1.6,2.5-3.8,6.8-4.8,9.6
	c-2.1,6-4.4,7.2-10.9,5.8c-6.3-1.4-10.3-3.7-21.4-11.9c-19.8-14.8-27.7-16.2-53-9.5c-23,6-30.8,3.5-59-19.1
	c-21-16.9-29.9-21.7-44-23.7c-10-1.5-20.7-0.1-31.2,4c-27.8,10.7-46.3,37.6-51.9,75.2c-1.7,11.7-2.4,52.6-1.1,69
	c2.6,32.2,11.2,69,24.6,105.2c2.6,6.9,3.1,9.4,2.2,10c-0.6,0.4-7,3.1-14.2,5.9c-28.2,11-36,15.3-45.2,25.2
	c-10.5,11.3-16.2,24.6-17,40.2c-0.7,13,1.3,22.2,7.1,34c6.5,13.1,15,24.1,32,41c24.4,24.2,50.8,43.6,78.1,57
	c23.9,11.8,35.9,14.7,52.1,12.5c20.8-2.7,35-13,43.8-31.4c4.8-10,6.9-17.4,11.6-40.1c3.5-16.8,7.8-30.6,11.5-37
	c4.4-7.5,10.4-13.3,24.5-24.1c16-12.1,23.6-19.8,27.9-28.5c2.6-5.2,3.1-7.4,3.1-13.3c0-12.8-6.1-20.6-16.2-20.6
	c-6.3,0-9.5,1.7-14.9,7.9c-5.6,6.3-9,8.1-15.9,8.1c-10.2-0.1-18.6-6.3-19.7-14.8c-0.5-3.9-0.4-4,69.2-88.8l69.8-84.9l6.1,0.3
	c13.7,0.8,19.2-5.2,22.7-24.7c1-5.8,1.9-10.9,1.9-11.3c0-1.6,6.6-8,9.9-9.8c2-1,8.4-3.5,14.1-5.5c5.8-2,12.4-4.7,14.6-6
	C466,74.5,467.4,53,451.1,43.9z M87.9,242.3c-9.4-33.6-12.4-55.6-12.5-93.5c-0.1-31.3,1.2-42.4,6.5-58.9
	c8.4-25.8,25.9-43.1,48.4-48.1c7.6-1.7,11.6-1.8,19.1-0.4c11.1,2,17.5,5.9,43.7,26.6c13,10.3,23.3,15.9,32.9,17.9
	c8.9,1.9,14.5,1.4,30.5-2.7c19.8-5.1,25.7-3.9,42.7,8.7c11.2,8.3,19.1,12.3,27.1,13.7l6.3,1.1l0.5,4.5c0.3,2.8,0.1,5.3-0.6,6.3
	s-27.5,33.4-59.7,72.2c-55.4,66.8-58.7,70.5-61.8,70.6c-4.2,0-9.1-2.1-11.9-5.2c-5.2-5.6-5-21.4,0.5-27.1
	c13.6-14.2,15.2-16.7,15.2-24.1c0-5.9-2.8-11.5-7.7-15.5c-5.2-4.3-10.1-5.4-21.5-4.9c-8.8,0.4-10.6,0.9-17.2,4.2
	c-14.1,6.9-23,20.4-33.1,49.6c-5.9,17-11.1,28-17,35.8c-4.9,6.6-14.4,14.8-15.5,13.5C101.5,285.2,92.1,257.2,87.9,242.3z"/>
<g transform="translate(0.000000,512.000000) scale(0.100000,-0.100000)">
	<path class="st1" d="M1638.4,92.4C912.5,245.2-12.9,1258.6,252.6,1655.1s868.9,531,978.7,640.8c94.2,94.2,139.4,331.4,214.9,500.1
		c103.2,230.5,230.8,391.5,323.2,421.1c168.5,53.9,240.7-13.2,240.7-13.2s97.7-34.1,97.7-123.2s-137.7-222.2-137.7-222.2
		s-65.4-38.1-53.9-187.8c12.1-158.8,126.7-184.1,126.7-184.1L2164,2467l1290.3,1528c0,0-79.6,301.2,169.9,490.9
		s812.4,178.1,812.4,178.1s280.2-92.4,77.9-294.7s-412.4-173.9-412.4-173.9l-132.7-407.6l-212.4-31.9L2318,1966.5
		c0,0,125.8-403.8,510.4-74.3c156,133.7,192.5-42.1,192.5-42.1s142.5-225.9-474-585.7c-123.7-72.2-215.6-917-447.4-1096.9"/>
	<path d="M3974.6,4911.5c-23.6-11.3-98.4-37.9-82.3-109.3c17-16,70.6-37.5,98.6-27.5c30,11,34,10,65-21l34-34l-79-13
		c-43-7-105-20-137-31c-66-20-63-21-127,33c-26,21-51,38-57,38c-5,0-9,12-9,27c0,28,1.6,53-55,53c-23,0-25.9-2.9-59.9-60.9
		c-27.3-27.3-85.4-62.7-54-94.1c17-26,81.9-34,101.9-16c5,6,22-2,43-21l35-31l-24-16c-13-9-46-34-73-56s-55-44-62-49
		c-14-11-155,99-155,121c0,19-18.5,72.5-69,38c-25-8-91-104-91-132c0-47,56-69,91-37c17,15,22,13,79-36c33-28,60-54,60-56
		s-13-24-29-50c-16-25-38-68-48-96c-21-60-44-72-109-58c-63,14-103,37-214,119c-198,148-277,162-530,95c-230-60-308-35-590,191
		c-210,169-299,217-440,237c-100,15-207,1-312-40c-277-107-462-376-518-752c-17-117-24-526-11-690c26-322,112-690,246-1052
		c26-69,31-94,22-100c-6-4-70-31-142-59c-282-110-360-153-452-252c-105-113-162-246-170-402c-7-130,13-222,71-340
		c65-131,150-241,320-410c244-242,508-436,781-570c239-118,359-147,521-125c208,27,350,130,438,314c48,100,69,174,116,401
		c35,168,78,306,115,370c44,75,104,133,245,241c160,121,236,198,279,285c26,52,31,74,31,133c0,128-61,206-162,206
		c-63,0-95-17-149-79c-56-63-90-81-159-81c-102,1-186,63-197,148c-5,39-4,40,692,888l698,849l61-3c137-8,192,52,227,247
		c10,58,19,109,19,113c0,16,66,80,99,98c20,10,84,35,141,55c58,20,124,47,146,60c176,103,190,318,27,409c-36,21-71,29-152,38
		l-106,11l-82,71c-48,42-82,79-82,91c-2,26-7.1,62.6-57.2,73.2C3971.8,4952.1,4018.1,4929.3,3974.6,4911.5z M1493.8,4705.7
		c111-20,175-59,437-266c130-103,233-159,329-179c89-19,145-14,305,27c198,51,257,39,427-87c112-83,191-123,271-137l63-11l5-45
		c3-28,1-53-6-63s-275-334-597-722c-554-668-587-705-618-706c-42,0-91,21-119,52c-52,56-50,214,5,271c136,142,152,167,152,241
		c0,59-28,115-77,155c-52,43-101,54-215,49c-88-4-106-9-172-42c-141-69-230-204-331-496c-59-170-111-280-170-358
		c-49-66-144-148-155-135c-13,14-107,294-149,443c-94,336-124,556-125,935c-1,313,12,424,65,589c84,258,259,431,484,481
		C1378.8,4718.7,1418.8,4719.7,1493.8,4705.7z M4454.8,4583.7c41-22,67-70,58-106c-10-40-52-89-96-112c-23-11-86-36-142-55
		c-125-43-171-70-224-127c-45-49-66-104-83-217c-14-93-36-142-72-154c-23-8-32-6-51,12c-36,34-67,28-114-20c-22-24-350-421-729-883
		c-947-1157-868-1063-908-1070c-67-13-156,64-156,134c0,36,47,96,805,1017c443,538,805,986,805,996c0,11-12,30-26,43
		c-25,23-26,30-21,81c14,139,129,283,288,362C3985.8,4581.7,4353.8,4636.7,4454.8,4583.7z M2009.8,3137.7c48-54,40-78-72-197
		c-77-82-95-128-95-244c1-137,51-223,157-270l48-21l-91-112c-105-130-139-190-146-261c-8-81,10-128,76-196c130-132,253-134,368-5
		l51,57l15-29c21-39,100-111,143-129c90-38,188-37,272,3c20,10,62,43,92,75c60,63,89,72,114,36c21-30,20-104-3-153
		c-30-64-93-128-250-249c-81-63-171-140-200-173c-96-107-145-234-211-558c-52-252-98-361-187-450c-111-112-304-154-478-106
		c-275,76-692,349-995,651c-274,272-374,461-343,646c23,132,112,274,236,374c88,71,189,121,375,184c411,140,494,226,647,674
		c72,214,104,284,162,358C1794.8,3167.7,1942.8,3212.7,2009.8,3137.7z"/>
	<path d="M4178.8,4520.7c-25-32-26-43-5-72c32-46,107-15,107,44C4280.8,4546.7,4213.8,4564.7,4178.8,4520.7z"/>
	<path d="M3842.8,4397.7c-13-41,11.7-89.3,56.7-78.3c14,3,36.7,22.6,38.3,26.3c16.9,39.4,3,58.5-24,72.5
		C3895.8,4427.2,3847.8,4413.7,3842.8,4397.7z"/>
	<path d="M3685.8,4180.7c-49-26-30-104,25-104c58,0,89,67,49,103C3736.8,4200.7,3720.8,4200.7,3685.8,4180.7z"/>
	<path d="M3220.8,3462.7c-24-21-26-27-18-52c6-17,21-33,38-38c22-8,31-6,52,14c30,28,32,53,5,80
		C3271.8,3492.7,3254.8,3491.7,3220.8,3462.7z"/>
	<path d="M2843.8,3020.7c-22-21-20-50,4-74s38-25,68-4c28,20,30,69,3,84C2890.8,3040.7,2861.8,3038.7,2843.8,3020.7z"/>
	<path d="M2454.8,2558.7c-20-22-22-63-5-80s64-15,82,4c21,21,20,57-2,77C2505.8,2581.7,2474.8,2580.7,2454.8,2558.7z"/>
	<path d="M1275.8,1775.7c-11-6-18-22-18-42c0-29,17-46,212-207c117-96,236-195,265-219c58-47,97-56,120-25c32,44,24,54-254,284
		c-157,129-276,220-288,220C1301.8,1786.7,1284.8,1781.7,1275.8,1775.7z"/>
	<path d="M924.8,1485.7c-97-64-165-170-152-238c12-63,41-96,232-258c103-87,239-202,302-256c64-54,136-111,161-125
		c91-54,212-24,280,70c72,99,49,160-130,338c-122,123-515,458-568,486C1008.8,1523.7,975.8,1519.7,924.8,1485.7z M1209.8,1230.7
		c213-177,416-367,448-419c24-39,18-59-26-94c-35-28-88-27-127,1c-38,27-526,440-580,490c-23,22-37,45-37,60c0,29,91,131,113,126
		C1008.8,1393.7,1103.8,1318.7,1209.8,1230.7z"/>
</g>
</svg>
