<?xml version="1.0" encoding="utf-8"?>
<!-- Generator: Adobe Illustrator 27.0.0, SVG Export Plug-In . SVG Version: 6.00 Build 0)  -->
<svg version="1.1" id="Слой_1" xmlns="http://www.w3.org/2000/svg" xmlns:xlink="http://www.w3.org/1999/xlink" x="0px" y="0px"
	 viewBox="0 0 252.2 513.3" style="enable-background:new 0 0 252.2 513.3;" xml:space="preserve">
<style type="text/css">
	.st0{fill:#FFFFFF;}
	.st1{fill:#FFCC00;}
</style>
<g>
	<path class="st0" d="M106.7,513.3c-1.7,0-3.6,0-5.6,0c-20.2,0-23.8-0.2-34.7-3.2c-34.3-9.2-55.2-29.3-63.8-61.5
		c-2-7.4-2.6-13.3-2.6-25.3c-0.1-20,2.1-29.6,10.9-56.9c9.8-30,9.7-30.4,4.7-50.7c-3.8-15.4-4.1-22.6-1.6-35
		c6-28,29.6-48.8,63.6-56.1c-0.8-7-2.1-17.2-3.8-29.6c-3.1-24.3-7.1-56.2-9-72.7c-1.4-12.1-2.6-21.9-3.2-27.6
		c-2.7-1.2-5.1-2.5-7-4.5c-3.8,2.6-8,4.1-12.4,4.1c-7.6,0-14.4-4.5-17.7-11.7c-3-6.6-2.8-13.8,0.2-19.6c-1.4-1.4-2.6-3.1-3.6-4.9
		c-3.8-6.5-2.9-11.7-1.5-17.8c1.2-5.1,5.4-17.2,18-17.3c0.4-3,1.3-6,3.3-8.7C46,7.2,54.6,6.1,62.2,5.1C67.5,4.4,78.1,3,85.5,2
		c9.8-1.3,18.2-2,24.5-2s13.4,0.5,18,5.8l0,0c1,1.1,2.8,3.3,4.1,9.8l0,0c6.5,0,11.7,2.5,15.9,7.6l0.1,0.1c6.2,7.7,6.7,18.5,1.6,26
		c4.1,5.9,5,13.3,2.2,20c-3.3,8-11.1,13.1-19.8,13.1c-1.3,0-2.6-0.1-3.9-0.3c-1.2,1.4-2.5,2.7-3.9,4l-0.2,0.1l9.5,67.8
		c5.3,37.6,8,56.8,9.3,66.7c23.5,3.3,43.5,18,51.7,38.3c3.1,7.8,3.1,11.5,3.1,35.9c0,19.2,0.2,23.6,1,26c2.6,6.8,8.5,18.1,15.5,29.5
		c16.1,26.3,20.5,38.7,20.4,57.6c-0.2,21.3-7.6,41-21.9,58.8c-18.1,22.7-42.5,36.7-76.6,44C126.5,512.9,121.3,513.3,106.7,513.3z"/>
	<path class="st0" d="M186.5,325.4c-1.6-4.4-1.8-8.2-1.8-30.5c0-24.1-0.1-25.8-2.2-31c-6.7-16.6-24.4-28.8-44.3-30.6
		c-4-0.4-7-1.2-7-1.8s-4.7-34.6-10.5-75.6l-10.4-74.5l5-4.7c4.1-3.9,4.9-5.2,4.9-8.2c0-3.8,1.8-4.8,4-2.2c0.6,0.8,2.7,2,4.6,2.6
		c9,3,15.5-7,8.9-13.6c-2.2-2.1-3.4-2.5-7.3-2.3c-2.6,0.1-6.2,0.2-8,0.1l-3.3-0.2l0.3-6.3c0.3-5.4,0.6-6.2,2.4-6.5
		c1.2-0.2,3.8,0.8,5.9,2.2c4.5,3.1,7.8,3.3,10.5,0.6s2.6-7.8-0.3-11.4c-2.3-2.8-4.1-3.3-9.7-2.5c-0.8,0.1-2.9,0.1-4.6,0.1
		c-3.1-0.2-3.1-0.3-3.7-6.8c-0.4-3.7-1.2-7.3-1.8-8c-1.6-1.9-13.8-1.7-30.9,0.6c-7.4,1-18,2.4-23.4,3.1c-14.2,1.8-15,2.9-12,17.8
		c0.5,2.6,0.4,2.7-3.8,2.5c-2.4,0-5.5-0.7-7-1.4c-4.6-2.2-7.2-0.3-8.8,6.5c-1.2,5-1.2,6.1,0.1,8.3c3.4,6.1,10.6,6.7,13.7,1.2
		c1.5-2.6,2.2-2.9,5.2-2.6c3.2,0.3,3.5,0.6,4.7,5.2c1.8,7,1.7,7.2-2.7,7.9c-2.2,0.4-4.2,1-4.5,1.5c-0.3,0.4-2.3,0.6-4.4,0.3
		c-6.9-0.9-11,5.4-8,12.1c2.5,5.5,8.8,5.4,13.4-0.1c1.3-1.6,3.4-2.6,6.2-3c4.2-0.5,4.2-0.5,5.8,3.5c1.4,3.5,2.4,4.3,6.6,5.8
		c3.4,1.2,5.1,2.5,5.4,3.9c0.2,1.1,2,16.2,4,33.5s6.1,49.9,9,72.5c3,22.5,5.2,41.2,4.9,41.4c-0.3,0.3-4.4,1.3-9.2,2.2
		c-30.2,5.8-50.7,22.9-55.7,46.4c-2.1,10.2-1.9,15.6,1.5,29.3c5.6,23.1,5.4,25.8-5,57.8c-8.8,27.2-10.4,35.1-10.3,52.9
		c0,11,0.5,15.7,2.2,21.9c7.4,27.6,24.8,44.3,54.7,52.3c9.2,2.5,11.3,2.7,31.4,2.7c18.8,0.1,22.9-0.2,32.2-2.2
		c31.3-6.7,52.9-19,69.2-39.4c12.5-15.6,18.8-32.5,19-50.8c0.1-16-3.6-26.4-18.5-50.7C195.4,344.6,189.3,332.8,186.5,325.4z"/>
	<path class="st0" d="M181.6,242.9c-10.2,0-18.5-8.5-18.5-18.9c0-2.8,0.9-8.7,2.8-17.7c2.7-13.2,3.9-15.9,4.7-17.4
		c1.1-2.2,4-6.7,9.3-8.6c2.1-0.8,4.3-1.2,6.6-1.2c10.3,0,18.7,8.4,18.7,18.6c0,4.7-2,14.1-3.1,19.3c-3.3,14.6-4.9,17.4-7.1,19.7
		C191.5,240.7,186.7,242.9,181.6,242.9L181.6,242.9z"/>
	<path class="st0" d="M185.4,228.1c1.6-1.7,6.8-25.1,6.8-30.3c0-4-4.1-6.7-7.8-5.2c-0.7,0.2-1.7,1.3-2.2,2.4c-1.3,2.3-6,25.2-6,29
		C176.2,229.2,182.1,231.9,185.4,228.1z"/>
	<path class="st0" d="M203.2,260.9c-9.9,0-19-8.9-19-18.7c0-5.7,2.3-9.7,18.3-26.5l0.1-0.1c5.4-5.6,10.9-10.5,18.5-10.5
		c4.4,0,8.4,1.7,12,4.9c4.8,4.3,6,9.1,6.2,12.3c0.3,8.3-4.9,14.5-13.7,23.7C217.3,255,211.8,260.9,203.2,260.9z"/>
	<path class="st0" d="M203.2,247.9c2.3,0,4.7-1.9,12.9-10.8c10.7-11.3,12-14.2,8.3-17.5c-3.3-3-5.7-2-12.5,5
		c-9.1,9.6-14.7,16.2-14.7,17.6C197.2,244.9,200.4,247.9,203.2,247.9z"/>
	<path class="st0" d="M233.4,291.9c-3.7,0-14.3-1.8-16.4-2.2c-8.7-1.5-16.3-2.7-21.1-8.8c-6.5-8-6-17,1.2-24.2l0.2-0.2
		c1.6-1.6,5.3-5.4,12.6-5.4c2.9,0,6.2,0.5,13.6,1.7l1.6,0.3c13.4,2,17.9,4,20.9,6.8c5.7,5.2,7.7,13.1,5,20.1
		C248.2,287.2,241.3,291.9,233.4,291.9z"/>
	<path class="st0" d="M237.3,269.5c-1.2-1.1-6.2-2.4-14.2-3.6c-15.2-2.4-14.5-2.4-16.9,0c-2.5,2.5-2.5,4.1-0.2,6.9
		c1.3,1.7,4.2,2.6,13.2,4.1c6.3,1.1,12.7,2,14.2,2C238.7,278.9,241.2,273,237.3,269.5z"/>
</g>
<path class="st1" d="M56.2,28.9l56.9-9v49.5l-8.4,10.8l21.4,156.5c0,0,41.5,0.2,50,29.2s0.6,35.1,3.1,56s36.5,63.8,36.5,73.5
	s4.9,53-43.3,80.5S55.3,499.5,25.8,453.8s22.3-105.2,12.3-123.1c-9.9-18-23.8-71.1,50.6-90.5l9.6-1.9L78.7,82.8l-10.5-6L56.2,28.9z"
	/>
<g transform="translate(0.000000,512.000000) scale(0.100000,-0.100000)">
	<path d="M871,4971c-74-10-180-24-234-31c-142-18-150-29-120-178c5-26,4-27-38-25c-24,0-55,7-70,14c-46,22-72,3-88-65
		c-12-50-12-61,1-83c34-61,106-67,137-12c15,26,22,29,52,26c32-3,35-6,47-52c18-70,17-72-27-79c-22-4-42-10-45-15c-3-4-23-6-44-3
		c-69,9-110-54-80-121c25-55,88-54,134,1c13,16,34,26,62,30c42,5,42,5,58-35c14-35,24-43,66-58c34-12,51-25,54-39
		c2-11,20-162,40-335s61-499,90-725c30-225,52-412,49-414c-3-3-44-13-92-22c-302-58-507-229-557-464c-21-102-19-156,15-293
		c56-231,54-258-50-578c-88-272-104-351-103-529c0-110,5-157,22-219c74-276,248-443,547-523c92-25,113-27,314-27c188-1,229,2,322,22
		c313,67,529,190,692,394c125,156,188,325,190,508c1,160-36,264-185,507c-77,126-138,244-166,318c-16,44-18,82-18,305
		c0,241-1,258-22,310c-67,166-244,288-443,306c-40,4-70,12-70,18s-47,346-105,756l-104,745l50,47c41,39,49,52,49,82
		c0,38,18,48,40,22c6-8,27-20,46-26c90-30,155,70,89,136c-22,21-34,25-73,23c-26-1-62-2-80-1l-33,2l3,63c3,54,6,62,24,65
		c12,2,38-8,59-22c45-31,78-33,105-6s26,78-3,114c-23,28-41,33-97,25c-8-1-29-1-46-1c-31,2-31,3-37,68c-4,37-12,73-18,80
		C1164,4996,1042,4994,871,4971z M1083,4654l5-208l-49-48c-29-30-48-58-48-72c0-12,16-131,35-265c19-134,35-249,35-257
		c0-11-7-9-27,7c-23,18-35,20-79,14c-51-6-52-6-58,22c-7,35-33,267-42,379c-4,44-11,88-15,97c-5,9-33,25-61,36l-53,20l-27,93
		c-28,94-81,330-76,334c4,4,396,53,429,54l27,1L1083,4654z M1131,3316c0-6-34-11-78-13l-78-3l-22,178c-13,98-25,190-28,206
		c-5,26-4,27,41,27c35,0,51,6,70,25c14,13,25,30,26,37C1063,3785,1129,3341,1131,3316z M1156,3075c8-65,15-120,15-121c0-2-36-3-79-3
		h-79l-12,88c-6,48-14,99-16,115c-5,26-4,27,43,28c26,1,62,4,78,8c17,4,31,7,33,6C1140,3195,1148,3141,1156,3075z M1220,2604
		c18-131,35-250,38-265c5-26,3-28-31-28c-20,0-53-7-73-15s-38-14-40-12c-7,7-24,119-52,340l-28,217h76h77L1220,2604z M1451,2655
		c131-30,243-128,276-242c14-46,15-80,8-211c-11-185-8-255,12-336c19-78,85-216,173-359c142-233,181-331,181-461c0-95-25-188-76-280
		c-43-79-195-222-293-277c-167-93-489-178-678-178c-264,0-408,112-473,367c-46,178-37,317,42,623c101,394,102,473,11,745
		c-46,134-51,225-16,290c24,45,91,112,143,143c36,21,180,65,188,57c2-2,14-77,26-167l22-163l-35-45c-61-80-76-124-76-225
		c1-96,17-148,71-227c54-77,181-138,288-138c70,0,114,14,170,53c209,149,204,505-9,637l-32,20l-22,162c-12,90-24,178-28,196
		c-5,31-4,32,26,32C1368,2671,1413,2664,1451,2655z M613,2507c-43-41-79-87-98-123c-26-53-29-67-28-158c0-94,3-108,49-235
		c49-134,49-136,49-260c0-110-4-143-38-280c-20-85-49-202-62-260c-34-141-44-390-20-493c23-99,72-209,122-277c24-33,42-60,39-60
		s-27,11-53,24c-215,109-343,369-311,631c6,52,34,152,79,285c94,279,103,316,104,440c0,83-7,138-33,260c-54,251-36,348,81,456
		c47,43,159,113,181,114C678,2571,651,2542,613,2507z M1308,2152c87-63,123-208,76-311c-39-89-115-149-186-150c-70,0-154,68-181,148
		c-20,56-21,152-2,196C1068,2162,1214,2220,1308,2152z"/>
	<path d="M846,4664c-14-13-16-27-10-72c4-31,13-66,21-78c18-29,64-30,89-3c16,18,17,26,6,73c-6,30-19,63-27,75
		C907,4685,869,4688,846,4664z"/>
	<path d="M1481,1400c-113-34-321-76-439-88c-88-10-117-26-106-60c2-9,9-46,15-83c17-99,22-102,171-88c164,14,294,35,404,64
		c174,47,181,54,160,165c-8,41-21,84-30,97C1636,1438,1602,1437,1481,1400z M1571,1287c0-28-354-99-480-95l-35,1l35,8
		c19,5,78,15,130,24s145,29,205,45C1555,1304,1571,1306,1571,1287z"/>
	<path d="M1843,3194c-7-2-17-13-22-24c-13-23-60-252-60-290c0-52,59-79,92-41c16,17,68,251,68,303C1921,3182,1880,3209,1843,3194z"
		/>
	<path d="M2118,2874c-91-96-147-162-147-176c0-27,32-57,60-57c23,0,47,19,129,108c107,113,120,142,83,175
		C2210,2954,2186,2944,2118,2874z"/>
	<path d="M2061,2461c-25-25-25-41-2-69c13-17,42-26,132-41c63-11,127-20,142-20c53,0,78,59,39,94c-12,11-62,24-142,36
		C2078,2485,2085,2485,2061,2461z"/>
</g>
</svg>
