<?xml version="1.0" encoding="utf-8"?>
<!-- Generator: Adobe Illustrator 27.0.0, SVG Export Plug-In . SVG Version: 6.00 Build 0)  -->
<svg version="1.1" id="Слой_1" xmlns="http://www.w3.org/2000/svg" xmlns:xlink="http://www.w3.org/1999/xlink" x="0px" y="0px"
	 viewBox="0 0 512 512" style="enable-background:new 0 0 512 512;" xml:space="preserve">
<style type="text/css">
	.st0{fill:#FFFFFF;}
	.st1{fill:#FFCC00;}
</style>
<g>
	<path class="st0" d="M193.8,150.5c-8.9,0-16.8-5.7-19.4-13.8c-1.2-3.8-1.5-6.4,4.1-30.3c5.4-23.1,6.9-25.8,9.1-28.4l0.2-0.2
		l0.2-0.2c3.5-4.1,8.8-6.4,14.7-6.4c6.2,0,12,2.5,16.1,6.9c4.2,4.6,5.7,9.9,4.8,16.6l0,0.1c-0.6,3.5-1.8,8.8-4.2,18.7
		c-1.9,7.9-4.6,19.1-5.3,21.8c-1.7,6.5-6.8,10.6-8.4,11.6l-0.8,0.6l-0.1,0.1C201.3,149.4,197.5,150.5,193.8,150.5z"/>
	<path class="st0" d="M193.8,145.5c-6.7,0-12.7-4.2-14.6-10.3c-0.8-2.5-1.3-4.2,4.2-27.7c5.4-23.1,6.7-24.7,8.1-26.4l0.2-0.2
		c2.6-3.1,6.6-4.8,11-4.8c4.8,0,9.4,2,12.5,5.3c3.2,3.5,4.2,7.3,3.5,12.5c-0.5,3.2-1.6,8-4.1,18.3c-1.8,7.5-4.6,19-5.3,21.7
		c-1.1,4.3-4.4,7.4-6.4,8.8l-0.3,0.2l-0.3,0.2C199.7,144.6,196.8,145.5,193.8,145.5L193.8,145.5z"/>
	<path class="st0" d="M193.8,140.5c-4.6,0-8.6-2.8-9.8-6.7c-0.4-1.3-0.9-2.9,4.3-25.1c5.1-22,6.4-23.6,7.1-24.4l0.1-0.1
		c1.7-2,4.2-3,7.2-3c3.4,0,6.7,1.4,8.8,3.7c2.2,2.4,2.7,4.6,2.2,8.4c-0.4,3-1.6,7.9-4,17.8c-2.2,9.1-4.8,19.7-5.3,21.6
		c-0.7,2.9-3.4,5.2-4.5,6.1l-0.1,0.1l-0.2,0.1C197.8,140,195.8,140.5,193.8,140.5L193.8,140.5z"/>
	<path class="st0" d="M196.7,134.7c1.2-0.9,2.5-2.3,2.7-3.3c0.3-1,2.7-10.7,5.3-21.5c4.7-19.3,4.8-19.7,3-21.7
		c-2.2-2.4-6.8-2.8-8.5-0.8c-1.7,2.1-11.2,42.7-10.5,44.9C189.6,135.2,193.9,136.5,196.7,134.7z"/>
	<path class="st0" d="M158.5,147.8c-4.4,0-8.7-1.6-12.6-4.8c-4.4-3.5-7-8.8-9.6-19.4c-1.4-5.7-2.7-13.1-3.5-20.2
		c-1.1-10.3-0.8-17.7,3.9-23.4c3.6-4.4,9.4-6.9,15.9-6.9c7.6,0,14.1,3.5,17.4,9.3c1.3,2.1,2.7,5.4,4,17.6c0.7,5.3,1.9,12.6,2.8,16
		l0,0.1c2,8.2,3.6,14.7-2.3,22.9l-0.1,0.1C169.9,144.9,164.6,147.8,158.5,147.8z"/>
	<path class="st0" d="M158.5,142.8c-3.3,0-6.4-1.2-9.5-3.7c-2.9-2.3-5.3-6-7.9-16.7c-1.5-6-2.7-13.4-3.4-19.6
		c-1.1-10.6-0.3-15.9,2.8-19.6c2.7-3.3,7.1-5.1,12.1-5.1c5.9,0,10.7,2.5,13.1,6.8c0.8,1.3,2.1,4,3.3,15.7c0.7,5.3,1.9,12.9,2.9,16.7
		c2,8.1,3.1,12.5-1.5,18.8C167,140.5,163.1,142.8,158.5,142.8L158.5,142.8z"/>
	<path class="st0" d="M158.4,137.8c-2.1,0-4.2-0.8-6.4-2.6c-1.7-1.3-3.7-4.1-6.2-14c-1.4-5.8-2.6-12.9-3.2-18.9
		c-1.1-11,0.2-14.1,1.7-16c1.7-2.1,4.7-3.3,8.3-3.3c4.1,0,7.4,1.7,8.8,4.5l0,0c1,2,1.8,6.5,2.6,13.6c0.7,5.3,1.9,13.3,3,17.3
		c1.9,7.6,2.6,10.2-0.7,14.6C165.4,134.3,162.8,137.8,158.4,137.8C158.4,137.8,158.4,137.8,158.4,137.8z"/>
	<path class="st0" d="M162.2,130.1c1.8-2.4,1.8-2.8-0.1-10.4c-1.1-4.3-2.4-12.4-3.1-18c-0.6-5.6-1.5-10.9-2.1-11.9
		c-1.1-2.2-7.1-2.3-8.8-0.2c-3.2,3.8,2.6,38.2,7,41.7C158,133.6,159.9,133.3,162.2,130.1z"/>
	<path class="st0" d="M127.8,150.5c-7.2,0-13.9-4.4-23.2-15.1c-6.5-7.6-11.7-15.4-14.3-21.5c-6.2-13.7,0-23.5,7.9-28.2
		c1.7-1,5.1-3.1,9.9-3.1c5.7,0,9.5,2.8,11.5,4.4c3.3,2.3,6.4,6.4,9.6,12.5l0.1,0.2c0.6,1.1,4.1,6.1,8.2,10.7
		c6.5,7,13.3,14.2,10.4,24.5l-0.1,0.5l-0.2,0.5C144.8,144.5,136.7,150.5,127.8,150.5z"/>
	<path class="st0" d="M127.8,145.5c-3.9,0-9.2-1.6-19.4-13.4c-5.9-6.9-11-14.4-13.5-20.2C89,98.8,97,92.2,100.8,90
		c1.6-1,4-2.4,7.3-2.4c3.9,0,6.6,1.9,8.6,3.4c4.1,2.9,7.6,9.7,8.3,11c0.9,1.7,4.8,7.1,8.9,11.7c6.4,6.8,11.4,12.2,9.3,19.8l-0.1,0.2
		l-0.1,0.2C140.9,140.7,134.6,145.5,127.8,145.5z"/>
	<path class="st0" d="M127.8,140.5c-1.5,0-5.6,0-15.6-11.6c-5.6-6.5-10.4-13.6-12.8-18.9c-3.1-7-1.8-12.3,3.9-15.6
		c1.4-0.8,2.8-1.7,4.8-1.7c2.3,0,3.9,1.2,5.7,2.4c3.3,2.3,6.6,9,6.8,9.2c1.3,2.6,5.8,8.5,9.7,12.9c5.9,6.3,9.5,10.1,8.1,15l0,0.1
		l0,0.1C136.8,137.2,132.4,140.5,127.8,140.5z"/>
	<path class="st0" d="M127.8,135.5c2.5,0,4.9-2,5.8-4.7c0.5-1.8-0.8-3.7-7-10.3c-4.1-4.5-8.9-10.8-10.5-14s-4-6.6-5.2-7.4
		c-2.6-1.9-2.7-1.9-5-0.5c-3.5,2-4,4.6-1.9,9.3C108.6,118.3,123.4,135.5,127.8,135.5z"/>
	<path class="st0" d="M108.4,440.9c-5.9,0-10.3-1.6-14.3-5.2l-0.2-0.2c-1.5-1.4-2.7-2.9-3.7-4.6c-3.7,0.8-7.1,1.2-10.4,1.2
		c-6.8,0-13.1-1.5-18.8-4.6c-14.9-7.7-16.6-15.3-27.2-64.4l-0.2-0.8c-4.7-21.8-13.3-61.2-18.1-83C1.6,216.1-0.9,201.8-0.9,196.4
		c0-14.1,11.3-29.5,24.2-33.2c0.1-0.1,0.2-0.1,0.3-0.1c6.9-6,13.7-8.1,29.6-11.8c63.4-15.2,128.4-23.9,193-26
		c14.6-0.4,23.4-0.8,24.2-0.9l0.2,0h0.4c0.2,0,0.5,0,0.7,0c0.6,0,1.3-0.1,2.2-0.1c13.5,0,64.5,2.2,78,3.4
		c50.2,4.4,123.7,16.5,139.7,25.1c9.4,4.9,17.3,14.6,20.1,24.7c2.4,8.6,1.6,18.1-7.8,92.6c-8.3,66.4-12.3,100.6-14,118.1
		c-1.2,12.8-2.3,18.9-6.6,23.4c-5.8,6.5-13.5,6.5-16,6.5c-3.3,0-7.5-0.5-13.6-1.3c-1.2,11.6-3.3,20.6-15.7,23.6
		c-2.1,0.5-4.3,0.6-7.5,0.6c-4.4,0-10.6-0.2-16.2-0.6c-68.9-4.7-121.9-6.9-166.9-6.9c-43.7,0-82.9,2-123.4,6.4l-1.6,0.2
		C115.1,440.5,111.4,440.9,108.4,440.9z"/>
	<path class="st0" d="M108.4,435.9c-4.6,0-7.8-1.1-10.9-3.9l-0.1-0.1c-2.3-2.1-3.5-4.4-4.3-6.8c-4.8,1.3-9.1,2-13.3,2
		c-5.9,0-11.4-1.3-16.4-4c-13-6.7-14.3-13-24.9-61.9c-5-23.1-13.5-62.1-18.1-83C6.8,216.3,4.1,201.3,4.1,196.4
		c0-12,10.2-25.7,21.1-28.5c0.4-0.2,1.1-0.6,1.4-0.8c5.9-5.3,11.3-7.1,27.8-11c63.2-15.1,127.8-23.8,192-25.9
		c13.6-0.4,23.3-0.8,24.5-0.9h0.2c0.7,0,1.6-0.1,2.9-0.1c13.1,0,63.9,2.2,77.6,3.4c49.3,4.3,122.6,16.4,137.8,24.5
		c8.2,4.3,15.2,13,17.6,21.6c2.1,7.6,1.2,17.9-7.9,90.6c-8.1,65-12.3,100.3-14,118.2c-1.1,12-2.1,17.1-5.3,20.5
		c-3.9,4.4-8.9,4.9-12.3,4.9l0,0c-3.5,0-8.3-0.6-15.9-1.7c-0.8-0.1-1.5-0.2-2.2-0.3c0,0.3-0.1,1.2-0.1,1.2
		c-1.3,13.4-2.1,20.8-12.3,23.2c-1.5,0.4-3.2,0.5-6.3,0.5c-3.9,0-9.9-0.2-15.9-0.6c-68.9-4.7-122-6.9-167.2-6.9
		c-43.5,0-82.9,2-123.9,6.4C115.3,435.5,111.3,435.9,108.4,435.9z"/>
	<path class="st0" d="M108.3,431c-3.9,0-5.7-1-7.6-2.7c-2.8-2.6-3.5-5.6-3.6-9.7c-0.7,0.2-1.4,0.5-2.2,0.7
		c-5.6,1.9-10.6,2.8-15.2,2.8c-5.1,0-9.7-1.1-14.1-3.4c-10.9-5.7-12-10.7-22.4-58.6c-5-23.2-13.5-62.1-18.1-83
		c-13.4-61-16.1-76.4-16.1-80.8c0-9.7,8.8-21.6,17.6-23.7c0.6-0.2,2.2-1,3.2-1.8c5.1-4.6,10.1-6.3,25.7-9.9
		c62.9-15,127.1-23.7,191-25.7c14-0.4,23.7-0.8,24.7-0.9l0.1,0c0.6,0,1.4-0.1,2.6-0.1c12,0,62.5,2.1,77.2,3.4
		c47.8,4.1,121.4,16.3,135.9,24c6.9,3.7,13.1,11.3,15.1,18.5c1.9,6.6,0.9,17.4-8.1,88.6c-8.1,65.1-12.3,100.5-14,118.3
		c-1.1,12.5-2.2,15.7-4,17.6c-2.6,2.9-5.8,3.3-8.6,3.3c-3.2,0-7.8-0.6-15.2-1.6c-2.9-0.4-5.4-0.7-7.4-0.9c-0.2,1.6-0.4,3.7-0.6,6.2
		c-1.3,13-1.7,17.4-8.5,18.9c-0.9,0.2-2.1,0.4-5.1,0.4c-3.8,0-9.7-0.2-15.6-0.6c-69-4.7-122.2-6.9-167.5-6.9
		c-43.7,0-83.2,2-124.4,6.4C115.2,430.6,111,431,108.3,431z"/>
	<path class="st0" d="M497.2,181.4c-1.6-6-6.9-12.4-12.6-15.4c-12.6-6.7-83.2-19-134-23.4c-15.3-1.3-72.8-3.7-79-3.3
		c-1.1,0.1-12.3,0.5-25,0.9c-62.9,2-127.3,10.6-190,25.6c-15.8,3.7-19.4,5.1-23.5,8.8c-1.4,1.2-3.7,2.5-5.2,2.9
		c-6.5,1.5-13.8,11.5-13.8,18.9c0,4.8,4.9,29.1,16,79.7c5,22.8,13.2,60.2,18.1,83c10.4,48.2,11.3,50.8,19.8,55.2
		c7,3.7,15,3.8,25.3,0.3c4-1.4,7.6-2.5,8.1-2.5c0.4,0,0.7,2.4,0.7,5.3c0,4.2,0.5,5.8,2,7.2c2,1.8,2.6,1.8,18.3,0.2
		c82.1-8.7,159.8-8.6,292.8,0.5c9.2,0.6,17.8,0.8,19.2,0.4c3.1-0.7,3.4-1.4,4.7-14.5c0.5-5.8,1.2-10.7,1.5-10.9
		c0.3-0.3,5.8,0.2,12.2,1.1c14.9,2.1,17.6,2.1,19.5-0.1c1.1-1.1,1.9-5.9,2.7-14.7c1.7-18.1,5.9-53.6,14-118.5
		C497.6,199.7,498.8,187.1,497.2,181.4z"/>
</g>
<g transform="translate(0.000000,512.000000) scale(0.100000,-0.100000)">
	<g>
		<path class="st1" d="M265.3,3248.7c-38.8-316.5,37.8-564.3,97.5-824.9S613.5,1129.9,679,1042.3s376.9,48.8,376.9,48.8l51.7-166.4
			l1175.5,77.6l1009.7-20.7c0,0,884.2-48.2,967.2-82.9s113.5,235.5,113.5,235.5l316,6.3c0,0,94.7,691.4,163.5,1303.6
			c51.8,461,127.6,821.4,59.8,919.2s-110.7,72.1-291.5,97.8c-248.7,35.4-1034.4,194-1940.9,184.8
			C1524.9,3634.3,287,3426.1,265.3,3248.7z"/>
	</g>
	<path d="M1991,4247c-17-21-112-427-105-449c9-29,52-42,80-24c12,9,25,23,27,33c3,10,27,107,53,215c47,193,48,197,30,217
		C2054,4263,2008,4267,1991,4247z"/>
	<path d="M1480,4225c-32-38,26-382,70-417c29-23,48-20,71,12c18,24,18,28-1,104c-11,43-24,124-31,180c-6,56-15,109-21,119
		C1557,4245,1497,4246,1480,4225z"/>
	<path d="M1057.8,4134.7c-35-20-40-46-19-93c46-104,194-276,238-276c25,0,49,20,58,47c5,18-8,37-70,103c-41,45-89,108-105,140
		s-40,66-52,74C1081.8,4148.7,1080.8,4148.7,1057.8,4134.7z"/>
	<path d="M2465,3719c-629-20-1273-106-1900-256c-158-37-194-51-235-88c-14-12-37-25-52-29c-65-15-138-115-138-189
		c0-48,49-291,160-797c50-228,132-602,181-830c104-482,113-508,198-552c70-37,150-38,253-3c40,14,76,25,81,25c4,0,7-24,7-53
		c0-42,5-58,20-72c20-18,26-18,183-2c821,87,1598,86,2928-5c92-6,178-8,192-4c31,7,34,14,47,145c5,58,12,107,15,109c3,3,58-2,122-11
		c149-21,176-21,195,1c11,11,19,59,27,147c17,181,59,536,140,1185c86,684,98,810,82,867c-16,60-69,124-126,154
		c-126,67-832,190-1340,234c-153,13-728,37-790,33C2704,3727,2592,3723,2465,3719z M3495,3586c449-42,941-121,1227-197
		c85-23,130-60,143-117c8-37-13-229-110-1002c-41-327-85-698-99-823c-13-126-26-230-29-233c-5-5-205,20-211,27c-2,2,14,224,37,492
		c29,349,38,494,30,505c-13,22-90,43-333,92c-532,107-987,147-1555,137c-513-9-947-58-1417-162c-216-48-227-51-234-81
		c-4-13,8-237,25-497c17-259,31-486,31-503v-32l-122-19c-68-11-126-17-130-14c-9,8-124,538-199,916c-62,308-158,865-180,1037
		c-21,165,1,189,221,242c489,118,1055,205,1525,235c94,7,188,13,210,15C2438,3615,3337,3600,3495,3586z M2755,2043
		c-1-175-8-470-15-655l-14-338h-163h-163v38c0,20,7,181,15,357s15,323,15,328c0,4,25,7,55,7h55v33c0,17-5,141-11,274s-9,249-6,257
		c5,13,26,16,120,16h113L2755,2043z M2314,2103c5-170,2-354-8-583c-9-184-16-365-16-401v-66l-166-7c-91-4-168-5-172-2
		c-5,6,12,462,25,654l6,92h63c63,0,64,0,64,28c0,15-5,134-11,265c-7,130-10,240-6,243c3,3,48,9,99,14c51,4,98,8,104,9
		C2304,2350,2309,2275,2314,2103z M3164,2343l39-6l-6-73c-4-40-2-180,4-312c7-189,6-307-6-558c-8-176-15-327-15-338
		c0-17-9-18-164-14c-91,2-168,6-171,10c-7,6,11,561,21,676l6,62h49h49v280v280h78C3090,2350,3142,2347,3164,2343z M3510,2315l45-5
		l-4-186c-4-229,5-354,25-354c16,0,15-71-7-523c-5-114-7-212-3-218c5-9-31-10-132-4c-77,4-140,8-141,9c-3,3,27,673,33,734l5,52h41
		h40l-7,255l-8,254l34-4C3450,2323,3485,2318,3510,2315z M1876,2063c-3-137-13-378-21-538c-8-159-15-329-15-376c0-53-5-91-12-101
		c-11-13-45-17-175-23l-163-7v331v331h62h61l-7,98c-3,53-9,185-13,293l-6,196l119,17c65,10,126,19,134,21
		C1885,2314,1884,2325,1876,2063z M3890,2265c47-8,85-15,86-15c0,0,4-152,7-337c7-368-11-868-33-903c-5-9-43-10-149-4
		c-125,6-141,9-136,23c8,20,22,255,30,529l7,212h34h34l-6,255l-7,255h24C3794,2280,3843,2273,3890,2265z M1380,1617v-613l-121-13
		c-67-7-122-11-124-9c-5,4-83,1172-79,1177c1,2,60,16,131,31c70,16,137,31,148,33c11,3,26,5,33,6C1377,2230,1380,2101,1380,1617z
		 M4373,2135c-21-257-94-1125-96-1140c-2-18-8-20-67-17c-36,1-82,5-104,8l-39,6l6,72c4,39,11,177,17,306s13,259,16,289
		c6,53,6,53,35,47c62-12,60-19,53,254l-7,248l94-22C4375,2164,4375,2164,4373,2135z"/>
	<path d="M2525,3489c-266-15-569-54-855-110c-137-27-138-27-155-53c-13-19-9-50,40-301c30-154,57-290,60-302c10-43,36-46,173-19
		c410,82,795,112,1309,103c281-4,313-3,326,12c10,10,17,52,22,116c8,120,29,281,51,388c8,42,13,86,9,96c-8,25-47,37-170,50
		C3075,3498,2796,3504,2525,3489z M3190,3370c63-6,134-13,156-16l41-6l-8-36c-8-36-32-214-44-334l-6-58h-344c-473,0-775-23-1123-86
		c-79-14-145-24-147-22c-3,3-85,424-85,437c0,9,130,34,355,70c105,17,352,44,485,54C2579,3381,3086,3379,3190,3370z"/>
	<path d="M3815,3359c-53-15-88-61-93-122c-5-65,14-109,61-137c89-55,217,20,217,126C4000,3307,3896,3382,3815,3359z M3881,3234
		c11-14,10-18-6-30c-24-18-34-18-41,1C3819,3243,3855,3265,3881,3234z"/>
	<path d="M4324,3301c-34-21-64-75-64-117c0-48,37-110,77-129c89-42,206,27,206,122C4543,3288,4418,3359,4324,3301z M4427,3194
		c3-8-2-23-11-32c-14-15-18-15-31-1c-9,9-13,23-9,32C4384,3214,4419,3215,4427,3194z"/>
	<path d="M1090,3238c-35-5-65-10-66-11c0-1,4-42,10-91c7-56,16-91,24-94c7-2,51,2,98,8l86,12l-6,32c-3,17-8,59-12,94
		c-7,62-7,62-38,61C1169,3248,1126,3243,1090,3238z"/>
	<path d="M663,3156c-45-6-85-14-88-18c-6-6,12-178,19-185c1-1,43,3,94,9c86,10,92,13,92,34c0,41-22,174-29,173
		C748,3168,708,3162,663,3156z"/>
	<path d="M3723.3,2923.1c-31-31-27.9-73,3.1-103c17-18,96.9-14.2,125.9-14.2c65,0,219.4-45.4,350.4-73.4
		c134-28,310.3,78.1,322.3,125.1c13,53-197.2-39-432.2,0c-66,11-164.5,22.2-204.5,31.6c-49,11.4-90,29.7-108,32.7
		C3755.3,2925.9,3743.3,2942.1,3723.3,2923.1z"/>
	<path d="M1134,2818l-60-9l11-89c6-49,14-92,17-96c6-5,179,13,186,20c1,2-2,45-9,95l-12,91l-36-1C1211,2828,1168,2823,1134,2818z"/>
	<path d="M760,2748c-35-5-66-11-69-14c-6-6,14-173,23-181c6-6,175,13,183,20c2,3-1,46-8,96C876,2773,886,2766,760,2748z"/>
	<path d="M3809.2,2614.4c-10-11-18-28-18-39c0-41,21-14.4,115-20.4c50-4,109-19.8,132-22.8c36-5,43-8.8,57,13.2c0,0,8.4,15.6,5,29
		c-16,36-57,48-174,54C3836.2,2633.4,3824.2,2631.4,3809.2,2614.4z"/>
</g>
</svg>
