<?xml version="1.0" encoding="utf-8"?>
<!-- Generator: Adobe Illustrator 27.0.0, SVG Export Plug-In . SVG Version: 6.00 Build 0)  -->
<svg version="1.1" id="Слой_1" xmlns="http://www.w3.org/2000/svg" xmlns:xlink="http://www.w3.org/1999/xlink" x="0px" y="0px"
	 viewBox="0 0 512 512" style="enable-background:new 0 0 512 512;" xml:space="preserve">
<style type="text/css">
	.st0{fill:#FFFFFF;}
	.st1{fill:#FFCC00;}
</style>
<path class="st0" d="M256.1,436.7c-173.7,0-174-0.1-182.6-2.2l-0.1,0c-10.9-2.8-18.8-6.7-29.1-14.5C29.5,408.8,16,389,9.2,368.4
	c-5-14.8-6.4-26.4-5.8-46c0.6-22,3.5-34.1,12.2-51.6c10.3-21.1,23.7-35.4,41.9-44.9l2.5-1.3v-2.1c0-6.8,0-17,9.7-22.1
	c6-3.2,14.1-3.6,29.8-3.6c4.8,0,8.7,0,11.4-0.1c0.2-1,0.4-2.1,0.6-3.4c5.8-32.4,19.8-64.2,40.5-92.1c10.7-14.4,21-21.9,35.7-26.1
	c6.8-2,12.5-2.2,67.8-2.2c7.4,0,13.9,0,19.7,0c43.6,0,47.6,0.4,60.6,6.8l0.3,0.2c10.3,5.1,19.3,14.2,30.2,30.5
	c15.9,23.7,28.5,53.8,33.6,80.6c0,0,0.8,4.2,1.1,5.8c2.8,0.1,6.6,0.1,11.5,0.1c15.7,0,23.8,0.4,29.8,3.6c9.7,5.2,9.7,15.4,9.7,22.1
	v2l0.7,0.3c10.2,5.1,16.5,9.7,24.1,17.5c15.5,15.7,26.4,37.6,30.7,61.7c2.1,12,2.1,34.5,0,46.5c-7.4,41.6-34.9,75.3-68.6,84
	C430.3,436.7,430.3,436.7,256.1,436.7z"/>
<path class="st0" d="M497.7,305.7c-3.9-22-13.8-42.1-28-56.4c-6.8-7-12.3-11-21.4-15.6l-6.2-3.1v-8.2c0-14.6-2-15.7-29.5-15.7
	c-14.8,0-19.6-0.3-19.9-1.3c-0.2-0.6-1.3-6.4-2.5-12.7c-4.9-25.5-16.8-54.1-32.1-76.9c-9.9-14.8-17.8-22.9-26.3-27.1
	c-12.3-6-11.7-6-76.2-5.9c-53,0-59.6,0.2-65,1.8c-12.5,3.6-21,9.9-30.4,22.5c-19.7,26.5-33.2,57.2-38.7,87.9c-0.9,5-1.8,9.8-2,10.4
	c-0.3,1-5.1,1.3-19.9,1.3c-27.5,0-29.5,1.1-29.5,15.7v8.2l-7.9,4.1C45.9,243.2,34,256,24.6,275.2c-8.1,16.3-10.6,27.2-11.2,47.5
	c-0.6,18.5,0.7,28.8,5.3,42.5c6.2,18.7,18.3,36.7,31.6,46.8c9.2,6.9,15.9,10.3,25.6,12.8c7.3,1.8,12.7,1.9,180.2,1.9
	c168.6,0,172.9,0,180.4-2c30-7.7,54.5-38.1,61.2-76C499.6,337.8,499.6,316.6,497.7,305.7z"/>
<g transform="translate(0.000000,512.000000) scale(0.100000,-0.100000)">
	<path class="st1" d="M736.1,2782.1c0,0-466.6-177-534.4-632.1c-71.9-482.1-47.2-718.2,203.3-1026
		c174.2-214,424.5-239.7,424.5-239.7l1794.1,0.3l1520.4-0.3l206,25.7c0,0,652.5,121.4,598,1014.8
		c-101.7,770-508.8,728.8-560.2,857.2c-47,117.5,12.3,188.8-28,203.3c-40.3,14.5-455.4,18.3-455.4,18.3s-201.7,793.7-404.7,996.8
		C3341,4159,3274.2,4220.3,3214,4235.2c-60.1,14.9-602.2,8.8-602.2,8.8s-639.6,28.2-760.5-36.9s-270.8-223.6-400.8-495.5
		c-129.7-271.3-231.1-704-231.1-704l-461.8-16.4L736.1,2782.1z"/>
	<path d="M1905,4261c-125-36-210-99-304-225c-197-265-332-572-387-879c-9-50-18-98-20-104c-3-10-51-13-199-13c-275,0-295-11-295-157
		v-82l-79-41c-163-85-282-213-376-405c-81-163-106-272-112-475c-6-185,7-288,53-425c62-187,183-367,316-468c92-69,159-103,256-128
		c73-18,127-19,1802-19c1686,0,1729,0,1804,20c300,77,545,381,612,760c19,109,19,321,0,430c-39,220-138,421-280,564
		c-68,70-123,110-214,156l-62,31v82c0,146-20,157-295,157c-148,0-196,3-199,13c-2,6-13,64-25,127c-49,255-168,541-321,769
		c-99,148-178,229-263,271c-123,60-117,60-762,59C2025,4279,1959,4277,1905,4261z M3265,4166c102-50,159-108,261-262
		c184-277,290-566,338-922c9-62,16-119,16-127c0-13-46-15-320-15h-320v48c0,80-5,83-155,80l-130-3l-3-62l-3-63h-34h-34l-3,63l-3,62
		l-129,3c-86,2-133-1-142-9c-9-7-14-32-14-65c0-53,0-54-30-54s-30,1-30,54c0,33-5,58-14,65c-9,8-56,11-142,9l-129-3l-3-62l-3-63h-34
		h-34l-3,63l-3,62l-130,3c-150,3-155,0-155-80v-48h-215c-198,0-215,1-215,18c0,32,29,184,50,261c106,386,450,700,850,775
		c116,22,321,21,435-3c453-94,790-452,870-923c7-46,36-66,59-42c20,19,20,9-8,135c-100,439-411,764-846,884c-77,22-125,28-250,32
		c-92,3-184,1-226-6c-375-58-698-291-870-627c-56-111-89-214-118-375l-23-124l-66-3c-54-2-67,0-67,12c0,8,9,77,20,153
		c51,349,152,621,332,894c45,68,105,147,132,174c54,54,149,109,212,124c22,5,299,9,645,8l605-2L3265,4166z M1175,2908
		c-4-35-10-66-14-70c-3-4-93-8-199-10l-192-3v62c0,48,4,64,18,72c10,6,96,11,205,11h189L1175,2908z M4331,2960c16-9,19-22,19-73v-62
		l-192,3c-106,2-196,6-199,10c-4,4-10,35-14,70l-7,62h187C4234,2970,4319,2966,4331,2960z M4256,2761c145-17,254-68,368-173
		c286-261,381-768,220-1175c-80-203-213-357-381-442c-115-57-145-61-501-61h-325l5,83c3,58,11,94,27,125c28,55,25,87-9,87
		c-21,0-30-10-54-60c-24-48-30-77-34-148l-4-87H2560H1552l-4,88c-4,70-11,100-36,154c-26,58-35,68-56,68c-38,0-41-31-10-92
		c21-41,28-71,32-135l5-83h-325c-367,0-388,3-522,73c-158,82-298,255-371,459c-54,153-68,247-62,433c3,129,9,179,30,256
		c91,347,335,595,617,629C945,2771,4159,2772,4256,2761z"/>
	<path d="M1759,2647c-25-7-59-23-76-35c-150-107-176-298-58-430c54-60,121-91,216-99l69-6v-43v-43l-127-3l-128-3v-30v-30l128-3
		l127-3v-252c0-242,1-255,23-297c12-25,37-55,56-67l34-23h534c592,0,567-3,620,67l28,36l3,268l3,268l127,3l127,3v30v30l-127,3
		l-128,3v43v43l69,6c95,8,162,39,216,99c99,111,99,266,0,376c-25,28-67,61-93,74l-47,23l-775,2C1988,2658,1794,2656,1759,2647z
		 M3339,2580c122-35,193-174,146-288c-9-20-33-54-53-75c-67-68-48-67-872-67s-805-1-872,67c-72,74-87,161-42,251
		c27,55,64,87,123,108C1814,2592,3284,2596,3339,2580z M3138,1739l-3-341l-28-24l-28-24h-519h-519l-28,24l-28,24l-3,341l-3,341h581
		h581L3138,1739z"/>
	<path d="M2131,2503c-20-17-22-25-19-138c3-116,4-120,28-132c19-10,122-13,420-13s401,3,420,13c24,12,25,16,28,132
		c3,113,1,121-19,138c-19,16-55,17-429,17S2150,2519,2131,2503z M2940,2370v-80h-96h-97l40,43c22,24,46,60,52,80c12,35,15,37,57,37
		h44V2370z"/>
	<path d="M2190,1677c-24-12-25-15-25-122s1-110,25-122c19-10,112-13,370-13s351,3,370,13c24,12,25,15,25,122s-1,110-25,122
		c-19,10-112,13-370,13S2209,1687,2190,1677z M2890,1555v-65h-76h-76l25,30c14,16,31,45,37,65c11,32,15,35,51,35h39V1555z"/>
	<path d="M816.5,2440.1c-192.1-85-282.1-149-389.8-378.4c-28.9-106.5-28.9-327.5,0-442.1c76.1-181.4,152-266.7,344.2-332.5
		c146.9-19.9,332.6-24.5,417.4,2.6c138.4,45.7,230.5,108.9,317.6,263.2c48.7,148,55,370.9,14.4,517.9
		c-84.4,205.8-84.4,205.8-241.8,320.3C1172,2447,929.2,2464.5,816.5,2440.1z"/>
	<path d="M3841.6,2391.1c-157.5-114.5-157.5-114.5-241.8-320.3c-40.6-147.1-34.3-370,14.4-517.9c87.1-154.3,179.3-217.5,317.6-263.2
		c84.8-27.1,270.4-22.5,417.4-2.6c192.2,65.9,268.1,151.2,344.2,332.5c28.9,114.6,28.9,335.7,0,442.1
		c-107.7,229.4-197.7,293.4-389.8,378.4C4190.8,2464.5,3948,2447,3841.6,2391.1z"/>
</g>
</svg>
