<?xml version="1.0" encoding="utf-8"?>
<!-- Generator: Adobe Illustrator 27.0.0, SVG Export Plug-In . SVG Version: 6.00 Build 0)  -->
<svg version="1.1" id="Слой_1" xmlns="http://www.w3.org/2000/svg" xmlns:xlink="http://www.w3.org/1999/xlink" x="0px" y="0px"
	 viewBox="0 0 520.9 471.5" style="enable-background:new 0 0 520.9 471.5;" xml:space="preserve">
<style type="text/css">
	.st0{fill:#FFFFFF;}
	.st1{fill:#FFCC00;}
</style>
<g>
	<path class="st0" d="M353.6,425.7c-10,0-19.5-2.4-30-7.5l-4.4-2.3l-10.7,1c-9.5,0.9-21.2,1.3-33,1.3c-14.9,0-28.7-0.7-38-1.9
		c-19.8-2.7-37.8-7.5-56.5-15.2c-5.1-2.1-7.1-2.5-11.1-2.7c-11.5-0.6-19.9-2.7-29.8-7.5c-10.8-5.1-22.6-16.4-27.8-26.5l-0.1-0.1
		l-0.4-0.8c-0.2-0.5-0.5-1-0.6-1.2c-0.3-0.4-2.4-1.7-3.5-2.4c-25.2-15.4-44.9-36.2-60.1-63.4c-1.3-2.3-2.2-3.9-2.7-4.4
		c-0.2-0.2-0.5-0.4-1.9-1.1l-0.1-0.1c-7.1-3.8-15.1-9.8-26.7-20.2c-3.9-3.5-7.9-8.8-10.8-14.3l-0.1-0.1l-0.4-0.8
		C0.9,247.7,0,243.8,0,234.5C0.1,216.9,6.2,204,18.6,195l0.3-14.4c0.5-31.4,1.9-38,16.8-78.9c8.1-21.8,15.8-34,30.6-48.2
		c32.3-31,85.5-50.3,145.9-52.9l2.6-0.1c1.4-0.1,2.8-0.1,4.1-0.2c0.7,0,1.4-0.1,2-0.1c0.5,0,1.2,0,1.4-0.1l0.3,0h0.3
		c0.2,0,0.5,0,0.8,0c0.6,0,1.2-0.1,1.8-0.1c10.6,0,39.3,2.2,52,3.9c57.7,8.1,112.1,30.3,153.2,62.5c20.9,16.4,42.3,38.7,54.5,56.7
		c8.4,12.3,16,28.5,21.4,45.5c7,21.6,8.7,30.8,9.4,49.6c0.6,20.2-1.2,33.9-6.6,50.8l-0.4,1.1c10.6,12.7,14.2,27.6,10.2,42.2
		c-6,21.3-26,36.2-48.5,36.2c-1.1,0-2.3,0-3.6-0.1c-1.3-0.1-2.5-0.2-3.7-0.3c-6.6,8.2-18.7,20.2-25.6,25.3
		c-8.6,6.6-19.5,12.9-29,16.7l-0.1,0c-0.2,0.1-0.5,0.2-0.9,0.4c-0.2,0.3-0.3,0.6-0.5,0.9l-0.3,0.7c-8.2,17.5-24.9,29.7-44.7,32.6
		C359.8,425.4,356.9,425.7,353.6,425.7z"/>
	<path class="st0" d="M353.6,420.7c-9.2,0-18-2.2-27.8-7l-5.6-2.9l-12.2,1.1c-8.9,0.8-20.5,1.3-32.6,1.3c-14.8,0-28.3-0.7-37.3-1.9
		c-19.2-2.6-36.8-7.3-55.3-14.9c-5.4-2.2-8-2.8-12.7-3.1c-11-0.6-18.6-2.5-28-7c-9.9-4.7-21.4-15.7-25.9-25l-0.1-0.1
		c-1.2-2.5-1.3-2.7-6-5.6c-24.4-14.9-43.6-35.1-58.4-61.6c-3.3-5.8-3.3-5.8-6.7-7.5c-6.6-3.5-14.3-9.3-25.7-19.5
		c-3.6-3.2-7.4-8.3-10-13.5l-0.1-0.1C5.7,246.2,5,243,5,234.5c0.1-16.8,6.2-28.8,18.6-36.8l0.3-17c0.5-31.1,1.8-36.9,16.5-77.3
		c7.8-21.1,15.2-32.7,29.4-46.3c31.5-30.3,83.6-49,142.7-51.5c2.2-0.1,4.6-0.2,6.7-0.3c1.6-0.1,3-0.1,3.8-0.2c0.7,0,1.6-0.1,2.6-0.1
		c10.8,0,39.1,2.2,51.3,3.9c56.9,8,110.5,29.9,150.8,61.5c20.6,16.2,41.5,38,53.4,55.6c8.1,11.9,15.5,27.6,20.8,44.2
		c6.9,21.4,8.5,30,9.2,48.3c0.6,19.4-1.1,32.7-6.4,49.1l-1.2,3.8l0.4,0.5c10.6,11.8,14.3,25.8,10.6,39.2
		c-5.4,19.1-23.3,32.5-43.7,32.5l0,0c-1,0-2.1,0-3.1-0.1c-2.5-0.2-4.6-0.4-6.4-0.6c-5.5,7.4-19,21.1-26.3,26.5
		c-8.5,6.5-19,12.5-27.9,16.1c-0.8,0.3-2.1,0.9-2.8,1.2c-0.4,0.8-1.1,2.3-1.6,3.3v0.1c-7.5,16-22.9,27.2-41.1,29.8
		C358.9,420.5,356.2,420.7,353.6,420.7z"/>
	<path class="st0" d="M353.6,415.7c-8.4,0-16.5-2.1-25.6-6.5l-6.8-3.5l-13.7,1.3c-8.8,0.8-20.2,1.3-32.1,1.3
		c-14.6,0-27.9-0.7-36.6-1.8c-18.8-2.5-35.9-7.1-54-14.5c-6-2.4-9.1-3.2-14.4-3.4c-10.3-0.5-17.4-2.3-26.1-6.5
		c-8.9-4.2-19.5-14.4-23.6-22.7c-1.7-3.5-2.4-4.4-7.9-7.7c-23.8-14.7-42.4-34.3-56.8-60c-4-7.1-4.2-7.2-8.7-9.5
		c-6.2-3.2-13.6-8.9-24.7-18.8c-3.1-2.7-6.6-7.5-8.8-12c-3.2-6.6-3.7-9.1-3.7-16.8c0.1-15,5.5-25.7,16.5-32.7l2-1.3l0.4-19.6
		c0.5-30.4,1.7-36,16.2-75.6c7.6-20.5,14.4-31.3,28.1-44.4c30.7-29.5,81.6-47.7,139.5-50.1c2.1-0.1,4.6-0.2,6.6-0.3
		c1.6-0.1,3-0.1,3.8-0.2c0.6,0,1.4-0.1,2.4-0.1c10.4,0,38.8,2.2,50.6,3.9c56.1,7.9,108.8,29.4,148.5,60.5
		c20.2,15.9,40.7,37.3,52.4,54.4c7.8,11.5,15,26.8,20.2,43c6.7,20.8,8.3,29.2,8.9,47c0.6,18.8-1,31.6-6.1,47.4l-2,6.5l2.3,2.6
		c9.4,10.5,12.8,22.8,9.5,34.5c-4.8,17-20.7,28.8-38.9,28.8c0,0,0,0,0,0c-0.9,0-1.8,0-2.8-0.1c-1.6-0.1-6.2-0.5-9.1-1
		c-0.2,0.3-0.5,0.7-0.8,1.2l-0.1,0.1c-4.4,6.5-18.8,21.2-26.1,26.7c-8.1,6.1-18.4,12.1-26.8,15.5c-2.4,1-3.9,1.6-4.5,2.1
		c-0.6,0.6-1.4,2.2-2.6,4.9c-6.8,14.5-20.8,24.6-37.3,27.1C358.4,415.5,355.9,415.7,353.6,415.7z"/>
	<path class="st0" d="M496.6,278.7l-4.2-4.7l2.9-9.3c5-15.5,6.5-27.7,5.9-45.7c-0.6-17.4-2.1-25.2-8.7-45.6
		c-5.1-15.8-12-30.5-19.6-41.7c-11.4-16.8-31.8-37.9-51.3-53.3c-39-30.6-90.7-51.7-146.1-59.5c-13.1-1.9-44.8-4.2-52-3.8
		c-1.9,0.1-6.6,0.3-10.5,0.5c-56.3,2.3-106.6,20.2-136.3,48.7C63.4,77,57,87.3,49.8,106.8c-14.4,39.4-15.4,44.4-15.9,74l-0.4,22.3
		l-4.3,2.8C19.6,212,15.1,221,15,234.4c0,7.1,0.4,8.8,3.2,14.6c2,4,5.1,8.2,7.7,10.5c10.9,9.7,18,15.1,23.7,18.1
		c5.6,2.9,6.4,3.8,10.8,11.5c13.9,24.8,32,44,55,58.2c6.1,3.7,7.6,5.2,9.8,9.8c3.6,7.3,13.3,16.6,21.3,20.4c8.1,3.9,14.4,5.5,24.2,6
		c5.9,0.3,9.6,1.2,16,3.8c17.6,7.2,34.1,11.7,52.8,14.2c15.9,2.1,47.5,2.4,67.6,0.5l15.1-1.4l8,4.1c10.6,5.2,19.9,6.9,30,5.5
		c15-2.2,27.4-11.2,33.5-24.2c3.1-6.8,3.3-7,9.7-9.6c8.1-3.3,17.9-9,25.7-14.9c7.1-5.3,21-19.6,25-25.5c2.2-3.4,3.2-4.1,4.8-3.6
		c1.2,0.4,5.5,0.9,9.6,1.2c16.9,1.1,32.1-9.4,36.5-25.1C507.8,298.5,504.9,288,496.6,278.7z"/>
	<path class="st0" d="M472.5,411.7c-3.4,0-6.8-0.6-20.6-8.1c-2.1-1.1-12.7-6.9-17.4-11.1c-4.1-3.4-6.6-8.8-7-14.6l0-0.1
		c-0.3-5.9,1.8-11.5,5.6-15.3c5.2-5.2,12.4-5.6,14.5-5.6c3.6,0,7.6,0.7,22.7,9.7c14.9,8.8,17.6,12,19.4,14.9
		c3.2,5.3,3.3,12.1,0.6,18c-3.2,6.6-9.2,11.1-15.7,11.9l-0.6,0.1l-1.2,0.2H472.5z"/>
	<path class="st0" d="M472.5,406.7c-2,0-4.5,0-18.2-7.5c-3.7-2-12.7-7.1-16.5-10.5c-3.1-2.6-5-6.7-5.3-11.2
		c-0.2-4.5,1.3-8.7,4.1-11.5c3.8-3.8,9.4-4.1,11-4.1c2.1,0,5,0,20.2,9c14.9,8.8,16.6,11.4,17.7,13.2c2.3,3.9,2.4,8.8,0.3,13.3
		c-2.4,5-6.9,8.5-11.8,9.1l-0.7,0.1L472.5,406.7z"/>
	<path class="st0" d="M472.5,401.7c-5,0-27.4-13.3-31.4-16.8c-2.1-1.7-3.4-4.5-3.5-7.7c-0.2-3.1,0.8-5.9,2.6-7.7
		c2-2,5.1-2.7,7.4-2.7c1.1,0,3.6,0,17.7,8.3c13.8,8.1,15.3,10.5,15.9,11.5c1.5,2.5,1.5,5.6,0.1,8.7c-1.6,3.5-4.7,5.9-8,6.3l-0.3,0
		L472.5,401.7z"/>
	<path class="st0" d="M447.6,371.9c-1.5,0-3.2,0.5-3.9,1.2c-1.8,1.8-1.5,6.3,0.6,8c4.6,4.1,26.2,15.9,28.3,15.6
		c3.1-0.4,5.8-5.1,4.3-7.5C475.3,386.4,450.6,371.9,447.6,371.9z"/>
	<path class="st0" d="M434.6,447.9c-10,0-15.1-6.2-25.2-18.6c-13.3-16.5-13.9-19.9-13.9-24.5c0-7.3,4.8-12.9,6.3-14.5l0.1-0.1
		c1.5-1.5,6.3-6.3,13.8-6.3c3.8,0,6.8,1.2,9.5,2.5l0.4,0.2c2.1,1.1,4.5,2.4,16.4,17.3c12.2,15.1,13.4,17.9,13.4,23.2
		C455.5,438.2,445.7,447.9,434.6,447.9z"/>
	<path class="st0" d="M434.6,442.9c-7.6,0-11.6-4.9-21.3-16.8c-12.8-15.9-12.8-18.4-12.8-21.3c0-4.5,2.7-8.7,4.9-11
		c1.3-1.3,4.8-4.8,10.3-4.8c3,0,5.5,1.1,7.4,2l0.2,0.1c1.5,0.8,3.6,1.9,14.9,16c12.3,15.3,12.3,16.8,12.3,20.1
		C450.5,435.4,442.9,442.9,434.6,442.9z"/>
	<path class="st0" d="M434.6,437.9c-5.2,0-8.3-3.8-17.4-14.9c-11.7-14.5-11.7-16.6-11.7-18.2c0-2.7,1.7-5.7,3.5-7.4
		c1.1-1.1,3.4-3.4,6.8-3.4c1.9,0,3.6,0.7,5.1,1.5c0.9,0.5,2.8,1.5,13.5,14.8c11.2,13.9,11.2,15.2,11.2,16.9
		C445.5,432.7,440.2,437.9,434.6,437.9z"/>
	<path class="st0" d="M418.5,399.9c-2.7-1.4-3.7-1.3-6,1c-1.1,1.1-2,2.9-2,3.9c0,1.1,4.8,7.8,10.6,15c9.1,11.2,11,13.1,13.5,13.1
		c2.8,0,5.9-3,5.9-5.7C440.5,425.5,420.9,401.2,418.5,399.9z"/>
	<path class="st0" d="M387.7,471.5c-5.3,0-9-2.2-11.6-4.2c-7.3-5.3-8.8-12.5-11.1-23.5l-0.1-0.7c-3.6-16.4-5.9-27.3,5.6-35.1
		c3.8-2.7,7.8-4.1,11.8-4.1c6.3,0,10.8,3.5,12.4,4.8l0.5,0.4l0.6,0.6c4.9,4.7,6.7,11.3,9.4,24.2l0,0.1c3.1,15.1,5.6,27.1-7.8,34.8
		l-0.2,0.2l-0.8,0.4C393.4,470.8,390.6,471.5,387.7,471.5z"/>
	<path class="st0" d="M387.7,466.5c-3.8,0-6.5-1.6-8.7-3.2c-5.8-4.2-7-10.2-9.3-21c-3.5-16.1-5.3-24.2,3.5-30.1
		c2.1-1.5,5.2-3.2,9-3.2c4.9,0,8.3,2.9,9.6,3.9l0.2,0.2l0.2,0.2c3.7,3.5,5.3,8.7,8,21.6c3.1,14.9,5,23.9-5.9,29.9l-0.1,0.1
		C391.9,466,389.8,466.5,387.7,466.5L387.7,466.5z"/>
	<path class="st0" d="M387.6,461.5c-2.3,0-4.2-1.1-5.8-2.3c-4-2.9-5-6.9-7.3-17.9c-3.4-15.6-4.6-20.9,1.4-25
		c1.8-1.2,3.7-2.3,6.2-2.3c2.7,0,4.8,1.4,6.4,2.8l0.2,0.2c2.5,2.4,3.9,6.5,6.5,19c3,14.3,4.3,20.3-3.4,24.5
		C390.8,460.9,389.4,461.5,387.6,461.5L387.6,461.5z"/>
	<path class="st0" d="M385.3,420.6c-2.5-2.1-3.7-2.1-6.6-0.1c-2.8,1.9-2.8,3.8,0.7,19.8c2.3,11,3.1,13.3,5.3,14.9
		c2.1,1.5,3,1.7,4.7,0.8c4-2.2,4.1-3.9,0.9-19.1C388.1,426.1,386.8,422,385.3,420.6z"/>
</g>
<g>
	<path class="st1" d="M48.9,124.8c0,0,25.8-92,139.8-102s282.2,35.8,307,187c4.5,27.6-8.7,49-8.7,49l-4.3,9.1c0,0,28.5,33,13,48.5
		s-40.8,9.3-40.8,9.3l-26.6,26.1l-34.6,19.9c0,0-9,32-38.8,31.4c-30.5-0.6-38.7-15.7-38.7-15.7s-80.5,1.3-111.2-3.1
		c-17.4-2.5-41.6-7.8-55.7-14.6c-11.3-5.4-17.7-14.4-30.6-32c-9.4-12.8-24.9-21.8-33.4-31.7c-19-22.1-27.5-38.3-27.5-38.3
		s-37-6-37-32.5s18.7-27.4,18.7-27.4l3.4-50L48.9,124.8z"/>
	<g transform="translate(0.000000,512.000000) scale(0.100000,-0.100000)">
		<path d="M2142,4965c-563-23-1066-202-1363-487c-133-127-197-230-269-425c-144-394-154-444-159-740l-4-223l-43-28
			c-96-61-141-151-142-285c0-71,4-88,32-146c20-40,51-82,77-105c109-97,180-151,237-181c56-29,64-38,108-115
			c139-248,320-440,550-582c61-37,76-52,98-98c36-73,133-166,213-204c81-39,144-55,242-60c59-3,96-12,160-38c176-72,341-117,528-142
			c159-21,475-24,676-5l151,14l80-41c106-52,199-69,300-55c150,22,274,112,335,242c31,68,33,70,97,96c81,33,179,90,257,149
			c71,53,210,196,250,255c22,34,32,41,48,36c12-4,55-9,96-12c169-11,321,94,365,251c28,100-1,205-84,298l-42,47l29,93
			c50,155,65,277,59,457c-6,174-21,252-87,456c-51,158-120,305-196,417c-114,168-318,379-513,533c-390,306-907,517-1461,595
			c-131,19-448,42-520,38C2228,4969,2181,4967,2142,4965z M2737,4823c220-33,366-67,567-132c445-145,775-342,1084-649
			c175-174,267-296,353-468c97-193,129-331,129-542c1-139-2-164-26-245c-25-84-90-226-122-268c-8-12-20-17-32-13c-16,5-21,24-31,139
			c-7,72-19,161-27,196c-9,35-13,66-11,69c3,2,19-1,35-8c21-8,31-20,33-38c2-16,13-32,29-41c24-13,29-13,54,3c27,18,28,19,21,95
			c-15,172-55,306-151,496c-60,119-74,140-95,143c-37,4-63-20-63-57c0-17-4-31-9-31c-4,0-25-16-46-35l-39-35l-64,83
			c-35,45-113,133-174,195l-110,112l35,6c19,3,56,12,82,21c43,13,50,13,70-1c12-9,29-16,37-16c24,0,51,32,51,60c0,22-20,44-107,117
			c-147,123-264,207-421,302c-156,94-165,98-197,77c-31-20-33-58-5-86c20-20,20-20-4-55c-14-20-27-49-31-65c-4-17-10-30-14-30
			c-3,0-53,20-109,45c-57,25-163,66-235,90c-73,25-138,48-146,50c-9,4-1,19,28,50c46,50,61,81,61,126c0,22,5,29,19,29
			c28,0,51,27,51,60c0,37-22,49-155,83c-166,43-247,51-476,52c-199,0-219-2-238-19c-12-11-21-28-21-39c0-24,27-57,47-57
			c8,0,13-13,13-37c1-21,7-56,15-78s15-42,15-45s-42-5-92-5c-51,0-122-2-157-4l-63-5l-3,72c-4,84-23,149-79,257c-22,44-42,83-44,87
			c-6,13,74,16,353,13C2540,4844,2632,4839,2737,4823z M1885,4750c67-119,84-166,90-251c5-89-12-147-56-190c-39-37-81-52-214-76
			c-327-59-579-225-688-454c-16-32-38-97-50-145c-29-117-54-161-110-189c-56-29-104-29-160,0c-65,33-102,85-111,155
			c-31,249,28,495,164,677c195,263,523,433,1032,539C1837,4827,1843,4824,1885,4750z M2937,4567c81-18,90-25,90-70
			c0-40-58-98-120-121c-59-22-179-22-253,0c-95,28-167,113-167,200c0,18,9,18,188,13C2793,4586,2890,4577,2937,4567z M2507,4302
			c25-4,71-18,104-29c38-15,98-25,175-30c101-8,138-16,288-65c303-99,460-172,543-251c58-54,106-83,175-105c105-33,368-288,503-487
			c28-42,41-73,45-110c8-73,37-134,92-192c42-45,48-58,75-166c17-65,33-161,36-214l6-96l-54-2c-106-4-199-67-248-168
			c-19-41-24-66-25-135c0-47,3-97,7-111c7-25,4-28-65-56c-159-66-345-116-557-150c-164-25-609-25-800,0c-530,72-1042,240-1375,450
			c-95,61-259,184-297,224c-26,28-27,28-12,83c32,121-10,245-119,346c-78,74-159,116-234,122c-56,5-68,15-87,79c-7,21-6,21,41,6
			c76-23,178-13,257,26c113,56,161,133,221,361c76,286,143,364,375,433c47,14,137,42,201,61c148,44,187,64,239,123
			c31,36,51,50,78,54C2151,4312,2456,4312,2507,4302z M3802,4141c96-61,295-210,295-220c0-15-116-22-188-10c-93,14-170,51-217,103
			c-34,37-37,45-32,85c4,39,37,93,56,93C3719,4192,3758,4169,3802,4141z M522,3363c105-393,389-765,784-1030
			c481-322,1230-532,1906-534c230,0,355,11,545,49c407,81,694,217,908,431c89,88,106,86,49-5c-64-102-178-202-303-265
			c-71-36-83-70-39-111l25-24l-82-74c-46-41-103-90-128-110c-48-39-218-148-230-148c-4,0-15,11-24,25c-16,24-15,24,27,43
			c54,24,71,45,63,77c-13,50-34,50-193-4c-249-84-323-95-636-96c-286-2-286-2-287-51c0-29,29-52,70-56c34-3,35-5,41-53
			c5-41,23-94,46-136c8-15-230-20-382-9c-230,17-575,71-575,90c0,3,14,14,30,24c49,28,124,109,144,154l19,42l77-6c84-7,110,5,110,50
			c0,34-28,53-90,60c-115,14-315,61-450,108c-203,70-410,181-587,314c-75,56-110,66-137,38c-32-32-19-61,50-115l55-42l-24-26
			c-27-29-52-71-67-114l-10-28l-29,21c-66,46-246,228-307,309c-54,72-154,244-154,266c0,3,17-12,38-35c22-22,44-40,51-40
			c13,0,61,45,61,57c0,4-34,62-75,128c-181,290-295,573-310,772c-3,43-8,96-11,118C483,3488,495,3463,522,3363z M4579,3290
			c51-118,97-268,82-268c-22,0-131,70-159,103c-41,48-61,120-45,162c13,34,58,85,75,85C4538,3372,4560,3335,4579,3290z M832,3027
			c49-20,144-112,166-160c10-22,19-62,19-89v-50l-31,30c-65,62-220,284-199,284C793,3042,813,3035,832,3027z M482,2930
			c30-79,126-277,170-351l27-47h-89c-110,0-176,19-230,65c-56,48-83,106-83,179c0,79,16,129,54,165c25,25,88,57,117,60
			C451,3002,466,2969,482,2930z M4592,2428c19-8,35-19,35-25c0-15-124-125-206-181c-89-61-98-58-90,33c5,73,43,140,94,167
			C4469,2445,4544,2448,4592,2428z M4897,2255c43-48,60-92,60-150c-1-148-192-259-335-194c-37,16-73,48-64,54c2,2,27,20,55,40
			c72,51,162,151,204,225c19,34,38,62,41,62C4862,2292,4879,2275,4897,2255z M1511,1882c162-97,385-190,572-237c57-15,104-31,104-35
			c0-25-100-112-164-143c-107-52-181-68-306-63c-99,3-112,6-183,41c-84,42-147,103-180,177c-24,53-28,155-9,212c12,35,62,98,76,98
			C1425,1932,1465,1909,1511,1882z M3834,1516c41-55,45-145,9-218c-31-64-80-110-151-142c-100-45-203-40-323,16
			c-112,52-242,201-242,277c0,23,1,23,131,23c144,0,283,17,429,54c52,13,100,24,107,25S3818,1536,3834,1516z"/>
		<path d="M1297,4542c-135-42-291-146-380-252c-69-82-131-189-137-237c-5-34-2-41,20-56c40-26,64-11,101,63c90,180,237,309,422,372
			c71,25,84,36,84,70C1407,4552,1371,4566,1297,4542z"/>
		<path d="M4449,1390c-18-18-15-63,6-80c46-41,262-159,283-156c31,4,58,51,43,75c-16,28-263,173-293,173
			C4473,1402,4456,1397,4449,1390z"/>
		<path d="M4137,1112c-11-11-20-29-20-39c0-11,48-78,106-150c91-112,110-131,135-131c28,0,59,30,59,57c0,17-196,260-220,273
			C4170,1136,4160,1135,4137,1112z"/>
		<path d="M3799,916c-28-19-28-38,7-198c23-110,31-133,53-149c21-15,30-17,47-8c40,22,41,39,9,191c-22,108-35,149-50,163
			C3840,936,3828,936,3799,916z"/>
	</g>
</g>
</svg>
