<svg width="1440" height="200" viewBox="0 0 1440 200" preserveAspectRatio="none" fill="none" xmlns="http://www.w3.org/2000/svg">
    <!-- Основной красный фон с плавными переходами -->
    <path d="M0 0 
        Q30 12 40 15
        Q70 10 80 12
        C100 17 110 18 120 20
        Q150 13 160 8
        C180 12 190 15 200 17
        Q230 10 240 5
        C260 10 270 12 280 13
        Q310 7 320 5
        C340 10 350 15 360 17
        Q390 10 400 8
        C420 13 430 17 440 20
        Q470 13 480 12
        C510 17 525 18 540 20
        Q570 13 600 8
        C620 12 630 15 640 17
        Q670 10 680 5
        C700 10 710 12 720 13
        Q750 7 760 5
        C780 10 790 13 800 15
        Q830 10 840 12
        C860 17 870 18 880 20
        Q910 13 920 8
        C950 13 965 15 980 17
        Q1010 10 1040 5
        C1060 10 1070 12 1080 12
        Q1110 7 1120 8
        C1140 13 1150 14 1160 15
        Q1190 10 1200 13
        C1220 17 1240 18 1260 20
        Q1290 13 1280 8
        C1300 13 1310 15 1320 17
        Q1350 10 1340 7
        C1360 12 1370 13 1380 13
        Q1410 7 1440 0
        L1440 200 L0 200 Z" fill="#FF4B26"/>

    <!-- Нижний черный край с плавными переходами -->
    <path d="M0 13
        Q30 17 40 20
        Q70 15 80 17
        C100 22 110 23 120 25
        Q150 18 160 13
        C180 17 190 20 200 22
        Q230 15 240 10
        C260 15 270 17 280 18
        Q310 12 320 10
        C340 15 350 20 360 22
        Q390 15 400 13
        C420 18 430 22 440 25
        Q470 18 480 17
        C510 22 525 23 540 25
        Q570 18 600 13
        C620 17 630 20 640 22
        Q670 15 680 10
        C700 15 710 17 720 18
        Q750 12 760 10
        C780 15 790 18 800 20
        Q830 15 840 17
        C860 22 870 23 880 25
        Q910 18 920 13
        C950 18 965 20 980 22
        Q1010 15 1040 10
        C1060 15 1070 17 1080 17
        Q1110 12 1120 13
        C1140 18 1150 19 1160 20
        Q1190 15 1200 18
        C1220 22 1240 23 1260 25
        Q1290 18 1280 13
        C1300 18 1310 20 1320 22
        Q1350 15 1340 12
        C1360 17 1370 18 1380 18
        Q1410 12 1440 0
        L1440 0 L0 0 Z" fill="black"/>
</svg>