<?xml version="1.0" encoding="utf-8"?>
<!-- Generator: Adobe Illustrator 27.0.0, SVG Export Plug-In . SVG Version: 6.00 Build 0)  -->
<svg version="1.1" id="Слой_1" xmlns="http://www.w3.org/2000/svg" xmlns:xlink="http://www.w3.org/1999/xlink" x="0px" y="0px"
	 viewBox="0 0 517.7 497.2" style="enable-background:new 0 0 517.7 497.2;" xml:space="preserve">
<style type="text/css">
	.st0{fill:#FFFFFF;}
	.st1{fill:#FFCC00;}
</style>
<g>
	<path class="st0" d="M334.4,78.7c-11.4,0-20.7-9.4-20.7-21c0-2.7,1.1-10.3,3.2-22.7c0.5-3,1-5.8,1.4-8.3c0.6-3.5,1.2-7.2,1.4-8.4
		c0.4-4.1,2.4-7.9,6.3-11.8C328.5,4,333.5,0,340,0c10.8,0,20.7,9.9,20.7,20.8c0,5.1-6.1,40.6-8.1,45.6l0,0.1
		C349.5,73.9,342.4,78.7,334.4,78.7L334.4,78.7z"/>
	<path class="st0" d="M338.7,60.7c1.1-2.7,7-36.2,7-39.9c0-2.7-3.1-5.8-5.7-5.8c-0.7,0-2.2,0.9-3.3,2c-1.1,1.1-2,2.3-2,2.7
		c0,0.5-1.4,8.4-3,17.8c-1.6,9.3-3,18.5-3,20.2C328.7,63.7,336.5,66,338.7,60.7z"/>
	<path class="st0" d="M309.7,79.8c-13.8,0-18.8-12.8-22.9-23.1c-5-12.3-8.3-20.5,0.4-30c3.9-4.3,9.4-6.7,15.3-6.7
		c6.9,0,13.3,3.3,17,8.9l0.4,0.6l0.3,0.6c1.4,2.5,4.3,9.6,5.9,13.8c3.4,8.7,6,17.2,1.8,25.3c-1.8,3.4-5.5,8-13.1,9.9
		C313.2,79.6,311.4,79.8,309.7,79.8C309.7,79.8,309.7,79.8,309.7,79.8z"/>
	<path class="st0" d="M311.1,64.6c5.1-1.3,5.3-4.4,1.1-15.3c-2.1-5.4-4.4-10.8-5.1-12.1c-1.8-2.7-6.4-3-8.7-0.4
		c-2.3,2.5-2.3,2.8,2.4,14.4C305.5,63.2,307.4,65.6,311.1,64.6z"/>
	<path class="st0" d="M358.5,86c-6.3,0-12.5-3.2-16.5-8.6c-3.9-5.3-5.1-11.7-3.3-17.6l0.1-0.3l0.1-0.3c0.9-2.4,1.9-5.3,15-17.5
		l0.1-0.1C367.8,29,372.1,28,376.7,28c10.8,0,21,10.1,21,20.7c0,5.7-2.2,10.4-15.4,22.9C373.2,80.3,367.2,86,358.5,86z"/>
	<path class="st0" d="M358.5,71c2.1,0,5.2-2.4,13.5-10.3c5.9-5.6,10.7-11,10.7-12c0-2.3-3.5-5.7-6-5.7c-1.1,0-6.6,4.2-12.5,9.6
		c-5.7,5.3-10.7,10.5-11.1,11.6C352.2,67.1,355.3,71,358.5,71z"/>
	<path class="st0" d="M217.9,497.2c-7,0-20.4-0.3-30.7-1.9c-29.8-4.8-55.3-13.9-80.4-28.7c-36.4-21.5-67.2-55.4-84.5-93.1
		c-39-85.1-26.1-183.9,32.1-245.8c4.8-5.2,12.1-12,16.5-15.6c8.7-7,32.3-23.7,41.5-29.2c17.2-10.4,38-19.1,57.1-23.9
		c17.1-4.3,34.8-6.5,52.5-6.5c38.8,0,76.7,10.5,109.7,30.2c11.4-3.3,24.9-4.9,46.4-5.5L390,77c3.1-6.3,7.7-12.8,12.7-17.5
		c7.5-7,11.4-9.7,21.5-12.9c5.4-1.8,11.1-2.6,16.8-2.6c14.8,0,29.3,6.1,40.1,16.7l4.8-0.3l1.4-0.1c2.7-0.1,5-0.3,7.1-0.3
		c13.5,0,19.1,7.1,21.4,13.1c2,5.3,2,10.9,2,21.1v3.6c0,11.9,0,18.5-3.7,24.6c-6,9.7-16.4,9.7-23.4,9.7l-3.3,0
		c-5.6,7.8-14.8,15.6-23.1,19.4c-8,3.7-12.4,4.1-23,4.1c-10.8,0-14.9-0.3-23.1-4.1c-10.6-5-17.4-10.7-23.6-19.9l-0.1-0.1
		c-3-4.6-4.9-8.4-6.5-13.4h-1.5c-3.5,0-7,0.1-10.4,0.2c4.6,4.8,8.9,9.5,12,13.4c23.5,29.2,38.1,61.5,44.6,98.6
		c6.1,35.2,2.1,84.4-9.8,119.8c-12.6,37.8-35.6,71.3-66.4,97c-30.8,25.6-68.1,42.4-108,48.4C240.5,496.6,229.7,497.2,217.9,497.2z"
		/>
	<path class="st0" d="M486.7,75.3L475.1,76l-4-4.1c-11.2-11.5-27.6-15.8-42.4-11c-7.6,2.4-9.6,3.7-15.8,9.5
		c-5.1,4.8-10.2,13-11.5,18.7l-0.7,2.6l-22.2,0.6c-21.6,0.6-34.8,2.2-45.5,5.8c-3,0.9-3.8,0.7-9-2.4c-44.9-27-99.4-35-150.8-22.1
		c-17.5,4.4-37.1,12.6-53,22.2c-8.8,5.3-31.9,21.6-39.8,28c-3.7,3-10.5,9.4-15,14.2C11.3,195.5-0.5,287.7,36,367.3
		c16,34.8,44.8,66.5,78.5,86.4c23.4,13.8,47.2,22.3,75.2,26.8c14,2.3,41.5,2.3,56.5,0.1c75.8-11.5,138.5-63.7,162.4-135.3
		c11.1-33.2,14.9-79.6,9.2-112.5c-6-34.5-19.6-64.6-41.5-91.8c-7.2-9-22.2-24-29.5-29.5l-5.2-4l5.3-1.2c8.5-1.9,25.1-3.3,39.5-3.3
		h13.3l0.5,2.7c1.8,8.5,3.2,12.1,6.7,17.4c4.6,6.8,9.4,10.9,17.5,14.7c5.2,2.4,6.9,2.7,16.8,2.7c9.8,0,11.6-0.3,16.7-2.7
		c6.7-3.1,14.9-10.5,18.5-16.5l2.5-4.3h9.9c14.3,0,13.9,0.5,13.9-21C502.7,73.8,503.2,74.4,486.7,75.3z"/>
</g>
<g transform="translate(0.000000,512.000000) scale(0.100000,-0.100000)">
	<path class="st1" d="M247,2465.7c0,0-110,998.1,920,1603.1s1893.3,150.6,1893.3,150.6s727.4-446.8,908.9-964.7
		c123.7-353,287.5-321.7,67.8-1474.7C3790.6,486.8,1967,493.8,1967,493.8S247,717.6,247,2465.7z"/>
	<path class="st1" d="M4757.5,4018.9H4974v269.5h-216.5c0,0-185.6,187.3-309.3,187.3s-349-94.6-375.5-275.7
		c-26.5-181.1,47.2-384.4,244.5-415.3C4514.5,3753.8,4703,3811,4757.5,4018.9z"/>
	<path d="M3367,4953.8c-11-11-20-23-20-27c0-5-14-84-30-178c-16-93-30-185-30-202c0-60,78-83,100-30c11,27,70,362,70,399
		c0,27-31,58-57,58C3393,4973.8,3378,4964.8,3367,4953.8z"/>
	<path d="M2984,4755.8c-23-25-23-28,24-144c47-120,66-144,103-134c51,13,53,44,11,153c-21,54-44,108-51,121
		C3053,4778.8,3007,4781.8,2984,4755.8z"/>
	<path d="M3642,4597.8c-57-53-107-105-111-116c-9-29,22-68,54-68c21,0,52,24,135,103c59,56,107,110,107,120c0,23-35,57-60,57
		C3756,4693.8,3701,4651.8,3642,4597.8z"/>
	<path d="M4287,4514.8c-76-24-96-37-158-95c-51-48-102-130-115-187l-7-26l-222-6c-216-6-348-22-455-58c-30-9-38-7-90,24
		c-449,270-994,350-1508,221c-175-44-371-126-530-222c-88-53-319-216-398-280c-37-30-105-94-150-142c-541-575-659-1497-294-2293
		c160-348,448-665,785-864c234-138,472-223,752-268c140-23,415-23,565-1c758,115,1385,637,1624,1353c111,332,149,796,92,1125
		c-60,345-196,646-415,918c-72,90-222,240-295,295l-52,40l53,12c85,19,251,33,395,33h133l5-27c18-85,32-121,67-174
		c46-68,94-109,175-147c52-24,69-27,168-27c98,0,116,3,167,27c67,31,149,105,185,165l25,43h99c143,0,139-5,139,210
		c0,222,5,216-160,207l-116-7l-40,41C4599,4519.8,4435,4562.8,4287,4514.8z M4542,4390.8c153-78,211-250,136-402
		c-49-100-132-155-242-163c-130-9-234,50-290,164c-27,55-33,78-33,133C4114,4341.8,4349,4489.8,4542,4390.8z M2593,4299.8
		c178-38,439-135,542-202c22-15,22-15-32-43c-157-83-278-190-372-329c-1-2-29,11-63,28c-39,21-67,29-81,25c-12-4-33-32-51-68
		c-17-34-65-124-107-200l-75-138l19-26c22-29,204-126,278-148s83-13,186,196c100,202,101,208,31,247l-42,24l27,36
		c43,59,94,110,159,160c64,50,235,142,263,142c36,0,233-169,344-295c603-684,634-1684,73-2400c-68-87-217-237-305-308
		c-91-73-239-166-345-217c-932-449-2035-71-2499,858c-142,285-209,627-186,949c53,738,524,1370,1212,1627c240,89,408,116,693,111
		C2439,4325.8,2491,4321.8,2593,4299.8z M4915,4161.8l-3-93h-43h-43l-3,65c-2,36-6,77-11,93l-7,27h56h57L4915,4161.8z"/>
	<path d="M4371,4213.8c-46-18-68-85-44-129c5-10,23-24,39-31c60-24,121,14,121,74C4487,4189.8,4424,4235.8,4371,4213.8z"/>
	<path d="M3317,2983.8c-11-11-20-25-20-30c0-6,18-47,39-93c53-111,79-194,96-307c17-111,18-179,5-275c-28-195-102-370-215-508
		c-49-61-56-94-25-122c32-29,67-10,132,75c251,326,298,784,119,1166C3397,2997.8,3358,3024.8,3317,2983.8z"/>
	<path d="M2067,2950.8c-193-66-316-210-351-412c-44-252,143-521,399-574c384-80,719,294,593,661c-56,162-193,291-355,334
		C2273,2981.8,2144,2977.8,2067,2950.8z M2392,2825.8c244-115,304-434,120-631c-59-63-115-96-197-117c-174-45-368,48-451,215
		c-30,61-32,72-32,171c0,97,2,110,31,170c37,78,107,150,181,186c76,38,107,44,200,40C2310,2856.8,2339,2849.8,2392,2825.8z"/>
	<path d="M2187,2592.8c-72-15-116-104-88-177c39-104,201-109,244-7C2388,2516.8,2303,2616.8,2187,2592.8z"/>
	<path d="M722,2393.8c-15-17-17-31-11-103c18-228,114-471,263-669c158-210,375-367,629-454c91-31,130-28,140,10c12,49-2,62-98,96
		c-336,117-592,352-728,668c-43,99-86,264-96,367c-4,40-13,77-22,88C779,2419.8,744,2418.8,722,2393.8z"/>
</g>
</svg>
